<?xml version="1.0" encoding="UTF-8" standalone="no"?>
<svg width="175px" height="67px" viewBox="0 0 175 67" version="1.1" xmlns="http://www.w3.org/2000/svg" xmlns:xlink="http://www.w3.org/1999/xlink" xmlns:sketch="http://www.bohemiancoding.com/sketch/ns">
    <!-- Generator: Sketch 3.3.1 (12005) - http://www.bohemiancoding.com/sketch -->
    <title>Group 57 Copy</title>
    <desc>Created with Sketch.</desc>
    <defs></defs>
    <g id="Page-1" stroke="none" stroke-width="1" fill="none" fill-rule="evenodd" sketch:type="MSPage">
        <g id="Artboard-9" sketch:type="MSArtboardGroup" transform="translate(-248.000000, -565.000000)">
            <g id="Group-57-Copy" sketch:type="MSLayerGroup" transform="translate(248.000000, 560.000000)">
                <path d="M170.978306,56.7925506 L170.978306,59.6731332 L174.864177,59.6731332 L174.864177,56.7925506 L170.978306,56.7925506 L170.978306,56.7925506 Z M166.900903,49.0058661 L166.900903,46.2304141 C165.465263,46.2304141 164.328732,46.5703335 163.491276,47.2501825 C162.653819,47.9300314 162.235097,48.9427809 162.235097,50.2884613 C162.235097,50.9613014 162.3323,51.5780624 162.52671,52.1387625 C162.721119,52.6994627 163.061331,53.1830593 163.547355,53.5895669 C164.033379,53.9960746 164.683893,54.3114637 165.498918,54.5357437 C166.313942,54.7600238 167.342054,54.8721621 168.583284,54.8721621 C169.794605,54.8721621 170.807763,54.7810497 171.622788,54.5988222 C172.437812,54.4165946 173.088327,54.1467617 173.57435,53.7893154 C174.060374,53.431869 174.396847,52.9833156 174.58378,52.4436417 C174.770712,51.9039678 174.864177,51.2696853 174.864177,50.5407751 C174.864177,48.9988496 174.449193,47.8949877 173.619214,47.2291563 C172.789235,46.5633249 171.581671,46.2304141 169.996485,46.2304141 L169.996485,49.0058661 C170.983487,49.0058661 171.701296,49.1180044 172.149934,49.3422845 C172.598571,49.5665645 172.822887,49.9240055 172.822887,50.4146182 C172.822887,50.7370208 172.744376,50.999845 172.587353,51.2030988 C172.43033,51.4063526 172.179845,51.5640472 171.835889,51.6761872 C171.491934,51.7883272 171.054519,51.8654224 170.523631,51.9074749 C169.992744,51.9495274 169.353445,51.9705533 168.605716,51.9705533 C167.902851,51.9705533 167.293461,51.9495274 166.777528,51.9074749 C166.261595,51.8654224 165.835396,51.7883272 165.498918,51.6761872 C165.16244,51.5640472 164.908216,51.3958397 164.736238,51.1715596 C164.56426,50.9472795 164.478273,50.659925 164.478273,50.3094874 C164.478273,50.0291373 164.549306,49.8048606 164.691375,49.6366506 C164.833443,49.4684405 165.020372,49.3387806 165.252168,49.2476668 C165.483964,49.156553 165.741927,49.0934752 166.026064,49.0584314 C166.310201,49.0233877 166.601811,49.0058661 166.900903,49.0058661 L166.900903,49.0058661 Z M168.583243,45.2702199 C169.629857,45.2702199 170.553106,45.2022823 171.353018,45.0664051 C172.15293,44.9305279 172.818268,44.6995401 173.34905,44.3734348 C173.879833,44.0473294 174.26857,43.6057351 174.515271,43.0486385 C174.761973,42.4915419 174.877847,41.7917847 174.862895,40.9493459 C174.862895,40.1476703 174.735808,39.4716913 174.48163,38.9213886 C174.227453,38.3710858 173.834978,37.9260946 173.304196,37.5864015 C172.773413,37.2467085 172.111813,37.0021332 171.319377,36.8526682 C170.526941,36.7032033 169.614905,36.6284719 168.583243,36.6284719 C167.521678,36.6284719 166.594691,36.6964095 165.802255,36.8322867 C165.009818,36.968164 164.344481,37.1991518 163.806222,37.5252571 C163.267964,37.8513624 162.868014,38.2929568 162.60636,38.8500534 C162.344707,39.40715 162.221358,40.1069072 162.236309,40.9493459 C162.236309,41.7510215 162.37461,42.4270006 162.651215,42.9773033 C162.92782,43.527606 163.331508,43.9725973 163.862291,44.3122903 C164.393073,44.6519834 165.054673,44.8965587 165.847109,45.0460236 C166.639545,45.1954886 167.551581,45.2702199 168.583243,45.2702199 L168.583243,45.2702199 Z M168.549637,42.3896373 C167.917409,42.3896373 167.33145,42.3766618 166.791743,42.3507105 C166.252036,42.3247591 165.789437,42.2631257 165.403932,42.1658082 C165.018427,42.0684907 164.717738,41.9225167 164.501855,41.7278818 C164.285972,41.5332468 164.178032,41.2737375 164.178032,40.9493459 C164.178032,40.4043681 164.517272,40.0280795 165.19576,39.8204689 C165.874249,39.6128583 166.992197,39.5090546 168.549637,39.5090546 C170.107077,39.5090546 171.225024,39.6128583 171.903513,39.8204689 C172.582002,40.0280795 172.921241,40.4043681 172.921241,40.9493459 C172.921241,41.2737375 172.813301,41.5332468 172.597419,41.7278818 C172.381536,41.9225167 172.080847,42.0684907 171.695342,42.1658082 C171.309837,42.2631257 170.847238,42.3247591 170.307531,42.3507105 C169.767824,42.3766618 169.181865,42.3896373 168.549637,42.3896373 L168.549637,42.3896373 Z M162.5554,34.7080835 L174.864177,34.7080835 L174.864177,31.9226552 L166.765093,31.9226552 C166.032969,31.9226552 165.499136,31.7914588 165.163579,31.5290621 C164.828022,31.2666654 164.660246,30.9134443 164.660246,30.4693883 C164.660246,30.0791572 164.797518,29.7999444 165.072064,29.6317414 C165.346611,29.4635383 165.743172,29.3794381 166.26176,29.3794381 L174.864177,29.3794381 L174.864177,26.5940098 L166.765093,26.5940098 C166.032969,26.5940098 165.499136,26.4628134 165.163579,26.2004167 C164.828022,25.9380199 164.660246,25.5847989 164.660246,25.1407429 C164.660246,24.7505118 164.797518,24.471299 165.072064,24.303096 C165.346611,24.1348929 165.743172,24.0507927 166.26176,24.0507927 L174.864177,24.0507927 L174.864177,21.2653644 L165.918579,21.2653644 C164.728877,21.2653644 163.817548,21.4840251 163.184566,21.9213529 C162.551584,22.3586808 162.235097,23.0415749 162.235097,23.9700556 C162.235097,24.6294115 162.39906,25.1979292 162.726991,25.6756258 C163.054921,26.1533224 163.54681,26.4998155 164.202671,26.7151154 L164.202671,26.7554839 C163.562062,26.9035026 163.073987,27.1961715 162.73843,27.6334993 C162.402873,28.0708272 162.235097,28.6124329 162.235097,29.2583325 C162.235097,29.8638634 162.357116,30.385285 162.601157,30.8226129 C162.845199,31.2599408 163.249386,31.65353 163.813732,32.0033923 L163.813732,32.0437608 L162.5554,32.0437608 L162.5554,34.7080835 L162.5554,34.7080835 Z" id=".com-something-11-copy" fill="#4F4F4F" sketch:type="MSShapeGroup"></path>
                <path d="M19.8783946,22.2255586 L30.1154971,59.6731332 L21.9908126,59.6731332 L20.203382,51.7535481 L9.91211504,51.7535481 L8.12468446,59.6731332 L0,59.6731332 L10.2371024,22.2255586 L19.8783946,22.2255586 Z M18.4578853,44.3100257 L14.6275271,27.9867239 L14.5165023,27.9867239 L10.6861441,44.3100257 L18.4578853,44.3100257 Z M39.7279138,22.2255586 L32.0584324,22.2255586 L32.0584324,47.9481685 C32.0584324,50.4274686 32.3957441,52.4418697 33.0703778,53.9914323 C33.7450115,55.5409948 34.6504273,56.7375835 35.7866525,57.5812342 C36.9228777,58.424885 38.218865,58.9844408 39.6746535,59.2599186 C41.130442,59.5353964 42.6394684,59.6731332 44.201778,59.6731332 C45.7640875,59.6731332 47.2731139,59.5181793 48.7289024,59.2082668 C50.1846909,58.8983543 51.4806783,58.2957557 52.6169034,57.4004529 C53.7531286,56.50515 54.6585444,55.2913442 55.3331781,53.758999 C56.0078118,52.2266538 56.3451235,50.2897297 56.3451235,47.9481685 L56.3451235,22.2255586 L48.6756421,22.2255586 L48.6756421,47.9481685 C48.6756421,48.877906 48.6135057,49.7301527 48.4892311,50.5049339 C48.3649565,51.2797152 48.1341642,51.9511823 47.7968474,52.5193552 C47.4595305,53.0875281 47.0068226,53.5351728 46.43871,53.8623027 C45.8705975,54.1894326 45.1249609,54.3529951 44.201778,54.3529951 C43.3141021,54.3529951 42.5773421,54.1894326 41.991476,53.8623027 C41.4056099,53.5351728 40.9440254,53.0875281 40.6067085,52.5193552 C40.2693917,51.9511823 40.0385994,51.2797152 39.9143248,50.5049339 C39.7900502,49.7301527 39.7279138,48.877906 39.7279138,47.9481685 L39.7279138,22.2255586 Z M67.8882044,47.5115393 L60.2309941,47.5115393 L60.2309941,49.0187454 C60.2309941,52.4489557 61.1615486,55.082209 63.0226854,56.9185842 C64.8838222,58.7549594 67.9768079,59.6731332 72.3017353,59.6731332 C76.4494116,59.6731332 79.6841961,58.7809455 82.0061858,56.9965431 C84.3281755,55.2121408 85.489153,52.3623371 85.489153,48.4470465 C85.489153,47.3036431 85.3828039,46.264201 85.1701025,45.3286891 C84.9574012,44.3931772 84.576317,43.5356375 84.0268385,42.7560443 C83.47736,41.976451 82.7417789,41.2488416 81.8200731,40.5731941 C80.8983672,39.8975466 79.7108025,39.2478953 78.2573433,38.6242207 L72.3549104,36.1295347 C70.7242,35.4712116 69.6607092,34.7522641 69.1644061,33.9726709 C68.668103,33.1930776 68.4199551,32.2315937 68.4199551,31.0881903 C68.4199551,30.5338128 68.4819921,29.9967678 68.6060679,29.4770389 C68.7301436,28.9573101 68.9605666,28.4982232 69.2973438,28.0997644 C69.6341209,27.7013056 70.0861045,27.380811 70.6533081,27.1382709 C71.2205117,26.8957307 71.9295056,26.7744625 72.7803109,26.7744625 C74.2692204,26.7744625 75.3327112,27.2508734 75.9708152,28.2037096 C76.6089193,29.1565458 76.9279665,30.5164826 76.9279665,32.2835606 L84.2661263,32.2835606 L84.2661263,31.2441081 C84.2661263,29.4770301 83.9736664,27.9611771 83.3887377,26.6965036 C82.8038089,25.4318301 81.988466,24.392388 80.9426844,23.5781461 C79.8969028,22.7639043 78.6561635,22.1748871 77.2204294,21.8110769 C75.7846953,21.4472668 74.2160464,21.2653644 72.5144356,21.2653644 C68.8630624,21.2653644 65.9916373,22.1662142 63.9000741,23.9679408 C61.8085108,25.7696674 60.7627449,28.5068649 60.7627449,32.1796154 C60.7627449,33.7041533 60.9577182,35.0467659 61.3476706,36.2074937 C61.7376231,37.3682214 62.3491303,38.3903395 63.1822106,39.2738785 C64.0152909,40.1574175 65.0521944,40.928337 66.2929523,41.5866602 C67.5337101,42.2449834 69.0048724,42.8513246 70.7064832,43.4057021 C71.9826913,43.8214851 73.0550445,44.2285999 73.923575,44.6270587 C74.7921055,45.0255175 75.4922369,45.4672804 76.0239903,45.9523606 C76.5557437,46.4374409 76.9368279,46.9831479 77.1672543,47.5894983 C77.3976808,48.1958486 77.5128923,48.914796 77.5128923,49.7463621 C77.5128923,51.3055486 77.0431839,52.4575969 76.1037529,53.2025416 C75.1643219,53.9474863 74.1096936,54.319953 72.9398362,54.319953 C71.9472299,54.319953 71.1230245,54.1813607 70.4671953,53.904172 C69.8113662,53.6269833 69.2884832,53.2458546 68.8985307,52.7607743 C68.5085783,52.2756941 68.2427056,51.6780149 68.1009047,50.9677188 C67.9591038,50.2574227 67.8882044,49.4691791 67.8882044,48.6029644 L67.8882044,47.5115393 Z" id="AUS-8-Copy" fill="#4F4F4F" sketch:type="MSShapeGroup"></path>
                <g id="Southen_Cross_Black_clip_art-11-Copy" transform="translate(67.412592, 37.896252) rotate(10.000000) translate(-67.412592, -37.896252) translate(40.449068, 4.773334)" fill="#FDBD14" sketch:type="MSShapeGroup">
                    <g id="g596">
                        <path d="M27.7339098,54.8241416 L28.9528693,58.4265953 L32.6762713,57.08633 L30.4730286,60.2381966 L33.8970009,62.1695245 L29.9305149,62.4974409 L30.4767162,66.2458377 L27.7339098,63.5029203 L24.9911034,66.2458377 L25.5373047,62.4974409 L21.5708187,62.1695245 L24.994791,60.2381966 L22.7915482,57.08633 L26.5149503,58.4265953 L27.7339098,54.8241416 L27.7339098,54.8241416 Z" id="polygon590"></path>
                        <path d="M28.119103,0 L29.4142474,3.84258268 L33.3703621,2.41301296 L31.0294167,5.77507466 L34.6673872,7.83508048 L30.4529959,8.18485752 L31.0333347,12.1831426 L28.119103,9.25736754 L25.2048712,12.1831426 L25.78521,8.18485752 L21.5708187,7.83508048 L25.2087892,5.77507466 L22.8678438,2.41301296 L26.8239585,3.84258268 L28.119103,0 L28.119103,0 Z" id="polygon592"></path>
                        <path d="M7.84342872,25.9245632 L11.7995434,24.4949469 L9.45859799,27.8570875 L13.0965685,29.9170211 L8.88217721,30.2667985 L9.46251602,34.2650885 L6.54828426,31.3393099 L3.63405249,34.2650885 L4.21439131,30.2667985 L0,29.9170211 L3.63797052,27.8570875 L1.29702512,24.4949469 L5.25313979,25.9245632 L6.54828426,22.0819459 L7.84342872,25.9245632 Z" id="polygon593"></path>
                        <path d="M48.148287,16.751821 L49.4443253,20.5944383 L53.3998278,19.164822 L51.0584963,22.5269626 L54.6974332,24.5868962 L50.4833499,24.9366736 L51.0631977,28.9349636 L48.148287,26.009185 L45.2349434,28.9349636 L45.8147913,24.9366736 L41.6008647,24.5868962 L45.2380777,22.5269626 L42.8976865,19.164822 L46.8538159,20.5944383 L48.148287,16.751821 L48.148287,16.751821 Z" id="polygon594"></path>
                        <path d="M37.3637396,33.5036421 L38.5276302,35.6602401 L41.6008647,35.8304943 L39.2468865,37.3335534 L39.9825381,39.5952134 L37.3637396,38.3676052 L34.7449411,39.5952134 L35.4805927,37.3335534 L33.1266145,35.8304943 L36.1998489,35.6602401 L37.3637396,33.5036421 L37.3637396,33.5036421 Z" id="polygon595"></path>
                    </g>
                </g>
                <path d="M103.153356,39.4646759 L89.3750236,58.712939 L95.2641493,58.712939 L106.264592,43.2409019 L116.931688,58.712939 L123.376391,58.712939 L109.431386,39.4646759 L122.543024,21.2653644 L116.653899,21.2653644 L106.32015,35.8982402 L96.4308629,21.2653644 L90.0972748,21.2653644 L103.153356,39.4646759 Z M152.611638,32.5319003 L157.95547,32.5319003 C157.655464,30.5292362 157.017961,28.7637562 156.042941,27.2354073 C155.067921,25.7070584 153.849165,24.4334534 152.386635,23.4145541 C150.924105,22.3956549 149.255346,21.6227084 147.380308,21.0956915 C145.50527,20.5686746 143.517759,20.3051702 141.417716,20.3051702 C138.342653,20.3051702 135.614514,20.8233956 133.233215,21.8598622 C130.851917,22.8963287 128.864406,24.3104694 127.270623,26.1023267 C125.676841,27.8941841 124.467459,29.9934364 123.642443,32.4001468 C122.817426,34.8068571 122.404924,37.3804176 122.404924,40.1209053 C122.404924,42.861393 122.789301,45.4261699 123.558066,47.815313 C124.326832,50.2044562 125.479963,52.2773581 127.017495,54.034081 C128.555026,55.7908039 130.486286,57.1698106 132.811334,58.1711427 C135.136381,59.1724747 137.855146,59.6731332 140.967709,59.6731332 C146.105314,59.6731332 150.155336,58.3556108 153.117896,55.7205265 C156.080456,53.0854422 157.824216,49.3963795 158.349227,44.6532277 L153.005394,44.6532277 C152.892892,46.1991438 152.55539,47.639635 151.992879,48.9747444 C151.430367,50.3098537 150.652238,51.46049 149.658468,52.4266876 C148.664698,53.3928852 147.483441,54.1482647 146.114663,54.6928488 C144.745885,55.2374329 143.180252,55.5097208 141.417716,55.5097208 C139.017667,55.5097208 136.955156,55.0881136 135.230121,54.2448867 C133.505086,53.4016597 132.089453,52.2685904 130.983181,50.8456449 C129.876908,49.4226993 129.061279,47.7538376 128.536268,45.8390097 C128.011257,43.9241817 127.748756,41.8951972 127.748756,39.7519953 C127.748756,37.7844657 128.011257,35.8872334 128.536268,34.0602416 C129.061279,32.2332498 129.876908,30.6083055 130.983181,29.18536 C132.089453,27.7624144 133.495711,26.6293452 135.201995,25.7861182 C136.90828,24.9428912 138.961416,24.521284 141.361465,24.521284 C144.174023,24.521284 146.602161,25.1888287 148.645952,26.5239381 C150.689744,27.8590475 152.011626,29.8616815 152.611638,32.5319003 Z" id="XC-11-Copy" fill="#4F4F4F" sketch:type="MSShapeGroup"></path>
            </g>
        </g>
    </g>
</svg>