<?xml version="1.0" encoding="UTF-8" standalone="no"?>
<svg width="1488px" height="1130px" viewBox="0 0 1488 1130" version="1.1" xmlns="http://www.w3.org/2000/svg" xmlns:xlink="http://www.w3.org/1999/xlink" xmlns:sketch="http://www.bohemiancoding.com/sketch/ns">
    <!-- Generator: Sketch 3.3.2 (12043) - http://www.bohemiancoding.com/sketch -->
    <title>Group</title>
    <desc>Created with Sketch.</desc>
    <defs></defs>
    <g id="25-Faces" stroke="none" stroke-width="1" fill="none" fill-rule="evenodd" sketch:type="MSPage">
        <g id="Group" sketch:type="MSLayerGroup">
            <g id="Imported-Layers-Copy-+-Racing-2-Copy-21-Copy-Copy-Copy-Copy-Copy-Copy-Copy-Copy-Copy-+-Imported-Layers-Copy-4-+-Interschools-Copy-21-Copy-Copy-Copy-Copy-Copy-Copy-Copy-Copy-Copy-Copy" transform="translate(306.000000, 0.000000)" sketch:type="MSShapeGroup">
                <g id="Imported-Layers-Copy-+-Racing-2-Copy-21-Copy-Copy-Copy-Copy-Copy-Copy-Copy-Copy-Copy">
                    <g id="Imported-Layers-Copy" transform="translate(1.299539, 0.000000)" fill="#FFFFFF">
                        <path d="M0.124027442,305.806576 C0.124027442,270.578124 -0.128805219,235.346307 0.226106939,200.121221 C0.415393423,181.334957 7.47983541,164.476733 17.3977712,148.773043 C26.7890849,133.902772 38.9919789,122.071991 54.4580367,113.246365 C112.65349,80.037507 170.686022,46.5438866 228.706386,13.0334363 C246.035563,3.02432836 264.786417,-0.454758938 284.489788,0.0467735763 C302.590308,0.507241012 319.398948,5.18394756 335.194905,14.354924 C392.748813,47.7704534 450.480514,80.8850633 508.188555,114.038046 C533.235889,128.42698 548.231435,150.475561 557.13466,177.193443 C560.172032,186.306525 561.252993,195.744761 561.246233,205.354662 C561.198911,272.222747 560.779777,339.095544 561.397662,405.958916 C561.733645,442.326419 536.046117,482.510281 508.261566,498.098181 C448.749219,531.483417 389.919656,566.073003 330.718956,600.010934 C312.976728,610.182283 293.482924,612.864304 273.332702,611.773723 C255.80883,610.82586 239.797897,605.45576 224.575884,596.609265 C167.424886,563.393675 110.050801,530.557769 52.7375577,497.619537 C28.4649463,483.669528 13.7878075,462.264524 4.70814047,436.523452 C1.28273113,426.813244 -0.0233456062,416.744895 0.0003152043,406.446312 C0.0760297979,372.900182 0.0287081769,339.353379 0.0287081769,305.806576 L0.124027442,305.806576" id="Fill-2"></path>
                    </g>
                    <g id="Racing-2-Copy-70" transform="translate(107.861751, 137.440678)" fill="#F7F9F9">
                        <g id="Your_Icon">
                            <path d="M236.28431,67.6663234 C251.832466,66.462197 263.498633,52.8818836 262.262536,37.3677911 C261.02644,21.8218012 247.360705,10.2470362 231.812549,11.4511626 C216.232076,12.6592762 204.614384,26.1917435 205.85048,41.7377334 C207.086577,57.2518259 220.707877,68.874437 236.28431,67.6663234 L236.28431,67.6663234 Z" id="Shape"></path>
                            <path d="M189.958964,160.021226 L226.330905,212.38079 L201.742277,293.412119 C198.716668,300.784403 201.293889,309.412647 208.153013,314.065678 C216.062416,319.336722 226.767174,317.27934 232.022604,309.476442 C232.717404,308.395918 233.286978,307.247612 233.755563,306.103293 C233.755563,306.103293 258.166452,225.363027 259.628762,220.769803 C261.951493,213.469288 261.923216,210.454985 261.301128,204.215058 C260.67904,197.975131 233.795959,111.449477 233.795959,111.449477 L262.444315,77.6302703 L279.749668,92.2273129 L279.773905,92.4346459 C280.634325,98.8539954 286.604753,103.371463 293.108398,102.522195 C299.612044,101.672927 304.188833,95.7798846 303.328413,89.3645222 C303.328413,89.3645222 299.862495,52.6944865 297.91948,46.5422776 C294.627262,36.1317673 284.532473,36.8693944 284.532473,36.8693944 L271.424194,35.1509226 C271.484787,35.6493193 271.537301,36.147716 271.577696,36.6500999 C272.555262,48.9425561 267.40486,60.329924 258.687551,67.8457462 L258.687551,67.8457462 C258.09778,68.3561044 257.48781,68.8385525 256.865723,69.3130261 C256.740497,69.4087183 256.615272,69.5044104 256.490046,69.5961154 C255.85584,70.0666019 255.209515,70.5251269 254.542992,70.9557416 C249.453182,74.2451599 243.494874,76.3503875 237.027584,76.8527714 C236.045978,76.9285277 235.052253,76.9683995 234.074686,76.9683995 C224.610064,76.9683995 215.553435,73.4397508 208.569085,67.03635 C201.572617,60.6209876 197.306872,51.8930646 196.555519,42.463399 C196.127328,37.0687531 196.88676,31.85353 198.599522,27.0569601 L139.884933,19.4135483 C139.884933,19.4135483 130.331441,16.1041942 124.405448,25.3105781 C120.907214,30.7490829 107.887805,65.2660449 107.887805,65.2660449 C106.63151,68.2444636 106.712301,71.4421768 107.859528,74.2092753 L26.9719511,85.9754246 L26.37814,81.2386624 C26.2044402,79.8630875 24.9360273,78.88623 23.5383495,79.0536913 C22.1447111,79.2251397 21.1509864,80.4771122 21.3246862,81.8566743 L21.9346555,86.7090646 L15.9965443,87.5742813 C14.6069455,87.7776271 13.6455371,89.0535227 13.8475136,90.4251104 C14.0333321,91.6730957 15.119966,92.5702098 16.3641417,92.5702098 C16.4893672,92.5702098 16.6145926,92.5622355 16.7398181,92.5422996 L22.5567433,91.6970188 L23.1990288,96.8205369 C23.3606101,98.0924453 24.4553231,99.0254439 25.7237359,99.0254439 C25.8287638,99.0254439 25.9337916,99.0214567 26.0388194,99.005508 C27.4324577,98.8340596 28.4261824,97.582087 28.2524826,96.202525 L27.594039,90.9633788 L111.260813,78.794525 C112.14951,79.5241777 113.163433,80.1382025 114.286422,80.6007146 C119.630722,82.7976473 125.673861,80.8479194 128.751984,76.2507082 L141.407836,74.408634 C142.797435,74.2052881 143.758843,72.9293926 143.556867,71.5578049 C143.350851,70.1862171 142.054161,69.2332826 140.668602,69.4366285 L131.212059,70.8122034 L141.448231,45.2065744 L174.237108,59.0500412 L148.767862,133.893277 L148.885009,133.965046 L81.2309369,225.008169 L22.6900479,282.726494 C22.2174227,282.98566 21.7609556,283.280711 21.352963,283.631582 C14.5261549,289.540574 13.5445488,299.767674 19.2645252,306.852881 C25.0652923,314.033781 35.5963507,315.305689 42.972535,309.791428 C43.1987488,309.623967 43.4330416,309.460493 43.6754135,309.312967 L121.105151,236.834126 L189.958964,160.021226 L189.958964,160.021226 Z M276.215078,61.3705763 L278.909445,84.9068621 L265.708257,73.7706862 L276.215078,61.3705763 L276.215078,61.3705763 Z" id="Shape"></path>
                            <path d="M180.292365,8.33319285 L176.773933,12.1808154 C175.832723,13.2095062 175.913513,14.8003885 176.959752,15.7293999 C177.444496,16.1640018 178.054465,16.375322 178.664434,16.375322 C179.359234,16.375322 180.054033,16.0962199 180.554935,15.5459899 L184.166276,11.598688 L199.569009,24.5928869 C200.267848,23.0099789 201.075754,21.4789043 201.980609,20.0156115 L187.57968,7.87068071 L190.791107,4.35798076 C191.732318,3.32928997 191.651528,1.7384077 190.605289,0.809396244 C189.56309,-0.123602382 187.951317,-0.0398717361 187.010106,0.99280623 L183.705769,4.60518552 L179.137059,0.749588639 C178.066584,-0.151512597 176.45885,-0.0279102153 175.549955,1.02869079 C174.637021,2.0852918 174.762247,3.66819973 175.832723,4.56930096 L180.292365,8.33319285 L180.292365,8.33319285 Z" id="Shape"></path>
                            <path d="M334.699413,311.996335 L323.162512,311.996335 L323.162512,316.418111 C323.162512,322.187551 318.416062,323.957856 318.416062,323.957856 L92.9092221,323.957856 L92.9092221,331.932203 L322.447515,331.932203 C337.183725,331.932203 334.699413,311.996335 334.699413,311.996335 L334.699413,311.996335 Z" id="Shape"></path>
                            <path d="M12.1881954,325.283548 L0.706438089,313.235188 L8.6017625,305.727243 L20.0835199,317.775603 L12.1881954,325.283548 L12.1881954,325.283548 Z" id="Rectangle-path"></path>
                        </g>
                    </g>
                </g>
                <g id="Imported-Layers-Copy-4-+-Interschools-Copy-21-Copy-Copy-Copy-Copy-Copy-Copy-Copy-Copy-Copy-Copy" transform="translate(618.000000, 0.000000)">
                    <g id="Imported-Layers-Copy-4" fill="#FFFFFF">
                        <path d="M0.124601643,305.806576 C0.124601643,270.578124 -0.129401539,235.346307 0.22715373,200.121221 C0.41731654,181.334957 7.51446428,164.476733 17.4783164,148.773043 C26.9131084,133.902772 39.1724973,122.071991 54.7101572,113.246365 C113.175034,80.037507 171.476235,46.5438866 229.765211,13.0334363 C247.174617,3.02432836 266.01228,-0.454758938 285.806871,0.0467735763 C303.991189,0.507241012 320.877647,5.18394756 336.746734,14.354924 C394.567094,47.7704534 452.566072,80.8850633 510.54128,114.038046 C535.704574,128.42698 550.769543,150.475561 559.713987,177.193443 C562.765421,186.306525 563.851386,195.744761 563.844595,205.354662 C563.797054,272.222747 563.375979,339.095544 563.996725,405.958916 C564.334264,442.326419 538.527812,482.510281 510.614628,498.098181 C450.826762,531.483417 391.724839,566.073003 332.250062,600.010934 C314.425695,610.182283 294.841642,612.864304 274.598131,611.773723 C256.99313,610.82586 240.908073,605.45576 225.615587,596.609265 C168.200002,563.393675 110.560295,530.557769 52.9817131,497.619537 C28.5967284,483.669528 13.8516399,462.264524 4.72993742,436.523452 C1.2886697,426.813244 -0.0234536877,416.744895 0.000316663579,406.446312 C0.0763817877,372.900182 0.0288410851,339.353379 0.0288410851,305.806576 L0.124601643,305.806576" id="Fill-2"></path>
                    </g>
                    <g id="Interschools-Copy-21" transform="translate(88.777778, 127.067797)" fill="#F7F9F9">
                        <path d="M347.824554,304.59661 C347.785106,313.625112 340.157302,320.909113 330.991028,320.866907 L57.4444444,320.866907 L57.4444444,331.931834 L330.955166,331.931834 C346.368565,332.009211 358.945296,319.913762 359.027778,304.716193 L347.824554,304.59661 L347.824554,304.59661 Z" id="Shape"></path>
                        <path d="M266.354797,55.9728814 C281.486908,55.9728814 293.75,44.0023495 293.75,29.2707264 C293.75,14.5391034 281.486908,2.60338983 266.354797,2.60338983 C251.219109,2.60338983 238.916667,14.5356215 238.916667,29.2672446 C238.916667,43.9988677 251.215531,55.9728814 266.354797,55.9728814 L266.354797,55.9728814 Z" id="Shape"></path>
                        <path d="M91.9291882,286.859201 L0,196.555932 L0.0396588387,212.331464 L85.6054061,296.448803 C95.4335874,306.87167 112.277778,294.810521 112.277778,294.810521 L104.201796,286.343706 C104.201796,286.343706 96.2483962,291.456278 92.1274824,287.102825 L91.9291882,286.859201 L91.9291882,286.859201 Z" id="Shape"></path>
                        <rect id="Rectangle-path" x="1.30555556" y="117.152542" width="92.6944444" height="10.4135593"></rect>
                        <path d="M347.096235,92.420339 L357.722222,96.8029342 L251.937231,305.898305 L240.222222,305.898305 L347.096235,92.420339 Z" id="Shape"></path>
                        <path d="M171.149441,76.7159839 L128.358038,125.000728 C125.842163,128.05557 121.98401,129.942488 117.680824,129.942488 C110.007585,129.942488 103.83813,123.892427 103.83813,116.432439 C103.83813,112.385036 105.625441,108.776044 108.507392,106.296396 L154.629368,54.3816154 C157.184721,51.4074407 161.003396,49.4819432 165.306582,49.4819432 L232.090313,49.4644068 C237.003626,49.4644068 241.38577,51.3899043 244.637385,54.4412392 L287.224216,96.0411048 L322.503885,61.6241517 C324.980281,59.5829138 328.188829,58.351858 331.680906,58.351858 C339.598195,58.351858 345.972222,64.6228773 345.972222,72.3178529 C345.972222,75.6918577 344.795037,78.7466998 342.763675,81.1632168 L300.216322,123.054187 C287.303174,135.652342 276.913078,124.958641 276.913078,124.958641 L250.81043,99.3274276 L210.003733,145.43415 L247.397311,181.973008 C247.397311,181.973008 255.271532,189.117341 250.763773,203.360411 L229.8149,294.616368 C228.149613,302.549838 220.964476,308.501695 212.397582,308.501695 C202.570956,308.501695 194.614189,300.722545 194.614189,291.123115 C194.614189,289.614984 194.775693,288.145433 195.181248,286.760057 L212.393993,211.872583 L169.932777,171.517802 L133.393376,211.332462 C133.393376,211.332462 127.467971,218.476794 111.794897,217.919136 L37.700415,218.038384 C29.4170502,218.196211 21.9053161,212.644185 20.0390468,204.451175 C17.8461803,195.086734 23.7751744,185.922207 33.3541608,183.838882 C34.8579432,183.498676 36.3581366,183.382935 37.8224403,183.421516 L101.562717,183.600387 L195.794963,76.8352314 L171.149441,76.7159839 L171.149441,76.7159839 Z" id="Shape"></path>
                    </g>
                </g>
            </g>
            <g id="Imported-Layers-+-Interschools-Copy-29-+-Imported-Layers-Copy-3-+-Racing-2-Copy-22-Copy-Copy-Copy-Copy-Copy-Copy-Copy-Copy-Copy" transform="translate(0.000000, 518.000000)" sketch:type="MSShapeGroup">
                <g id="Imported-Layers-+-Interschools-Copy-29">
                    <g id="Imported-Layers" fill="#FBFCFC">
                        <path d="M0.124413525,305.806576 C0.124413525,270.578124 -0.129206174,235.346307 0.226810783,200.121221 C0.416686493,181.334957 7.50311925,164.476733 17.4519283,148.773043 C26.8724761,133.902772 39.1133562,122.071991 54.627558,113.246365 C113.004167,80.037507 171.217347,46.5438866 229.418321,13.0334363 C246.801442,3.02432836 265.610666,-0.454758938 285.375371,0.0467735763 C303.532236,0.507241012 320.393199,5.18394756 336.238327,14.354924 C393.971393,47.7704534 451.882806,80.8850633 509.770485,114.038046 C534.895789,128.42698 549.938014,150.475561 558.868953,177.193443 C561.91578,186.306525 563.000106,195.744761 562.993325,205.354662 C562.945856,272.222747 562.525417,339.095544 563.145226,405.958916 C563.482255,442.326419 537.714765,482.510281 509.843723,498.098181 C450.146122,531.483417 391.133429,566.073003 331.748445,600.010934 C313.950987,610.182283 294.396502,612.864304 274.183554,611.773723 C256.605132,610.82586 240.54436,605.45576 225.274962,596.609265 C167.94606,563.393675 110.393376,530.557769 52.9017234,497.619537 C28.5535542,483.669528 13.8307273,462.264524 4.72279635,436.523452 C1.28672412,426.813244 -0.0234182783,416.744895 0.000316185493,406.446312 C0.0762664696,372.900182 0.028797542,339.353379 0.028797542,305.806576 L0.124413525,305.806576" id="Fill-2"></path>
                    </g>
                    <g id="Interschools-Copy-20" transform="translate(88.643745, 127.067797)" fill="#F7F9F9">
                        <path d="M347.299422,304.59661 C347.260034,313.625112 339.643747,320.909113 330.491311,320.866907 L57.3577171,320.866907 L57.3577171,331.931834 L330.455504,331.931834 C345.845632,332.009211 358.403375,319.913762 358.485732,304.716193 L347.299422,304.59661 L347.299422,304.59661 Z" id="Shape"></path>
                        <path d="M265.952666,55.9728814 C281.061931,55.9728814 293.306508,44.0023495 293.306508,29.2707264 C293.306508,14.5391034 281.061931,2.60338983 265.952666,2.60338983 C250.839828,2.60338983 238.55596,14.5356215 238.55596,29.2672446 C238.55596,43.9988677 250.836256,55.9728814 265.952666,55.9728814 L265.952666,55.9728814 Z" id="Shape"></path>
                        <path d="M91.7903972,286.859201 L0,196.555932 L0.0395989634,212.331464 L85.4761625,296.448803 C95.2895056,306.87167 112.108265,294.810521 112.108265,294.810521 L104.044476,286.343706 C104.044476,286.343706 96.1030843,291.456278 91.988392,287.102825 L91.7903972,286.859201 L91.7903972,286.859201 Z" id="Shape"></path>
                        <rect id="Rectangle-path" x="1.30358448" y="117.152542" width="92.5544981" height="10.4135593"></rect>
                        <path d="M346.572203,92.420339 L357.182148,96.8029342 L251.556866,305.898305 L239.859544,305.898305 L346.572203,92.420339 Z" id="Shape"></path>
                        <path d="M170.891046,76.7159839 L128.164248,125.000728 C125.652172,128.05557 121.799844,129.942488 117.503154,129.942488 C109.8415,129.942488 103.681359,123.892427 103.681359,116.432439 C103.681359,112.385036 105.465972,108.776044 108.343572,106.296396 L154.395915,54.3816154 C156.94741,51.4074407 160.760319,49.4819432 165.057009,49.4819432 L231.739912,49.4644068 C236.645807,49.4644068 241.021335,51.3899043 244.268042,54.4412392 L286.790577,96.0411048 L322.016982,61.6241517 C324.489639,59.5829138 327.693342,58.351858 331.180147,58.351858 C339.085483,58.351858 345.449887,64.6228773 345.449887,72.3178529 C345.449887,75.6918577 344.274479,78.7466998 342.246184,81.1632168 L299.763068,123.054187 C286.869415,135.652342 276.495006,124.958641 276.495006,124.958641 L250.431767,99.3274276 L209.686678,145.43415 L247.0238,181.973008 C247.0238,181.973008 254.886133,189.117341 250.38518,203.360411 L229.467935,294.616368 C227.805162,302.549838 220.630873,308.501695 212.076913,308.501695 C202.265123,308.501695 194.320368,300.722545 194.320368,291.123115 C194.320368,289.614984 194.481628,288.145433 194.886571,286.760057 L212.073329,211.872583 L169.676219,171.517802 L133.191984,211.332462 C133.191984,211.332462 127.275525,218.476794 111.626114,217.919136 L37.6434964,218.038384 C29.3726376,218.196211 21.8722443,212.644185 20.0087926,204.451175 C17.8192368,195.086734 23.7392796,185.922207 33.303804,183.838882 C34.8053161,183.498676 36.3032446,183.382935 37.7653375,183.421516 L101.409381,183.600387 L195.49936,76.8352314 L170.891046,76.7159839 L170.891046,76.7159839 Z" id="Shape"></path>
                    </g>
                </g>
                <g id="Imported-Layers-Copy-3-+-Racing-2-Copy-22-Copy-Copy-Copy-Copy-Copy-Copy-Copy-Copy-Copy" transform="translate(618.000000, 0.000000)">
                    <g id="Imported-Layers-Copy-3" transform="translate(0.288417, 0.000000)" fill="#FBFCFC">
                        <path d="M0.123819581,305.806576 C0.123819581,270.578124 -0.128589351,235.346307 0.225728,200.121221 C0.414697255,181.334957 7.46729977,164.476733 17.3686138,148.773043 C26.7441884,133.902772 38.9266312,122.071991 54.3667691,113.246365 C112.464691,80.037507 170.399965,46.5438866 228.323091,13.0334363 C245.623226,3.02432836 264.342655,-0.454758938 284.013005,0.0467735763 C302.08319,0.507241012 318.863659,5.18394756 334.633144,14.354924 C392.090595,47.7704534 449.725543,80.8850633 507.336869,114.038046 C532.342226,128.42698 547.31264,150.475561 556.200944,177.193443 C559.233226,186.306525 560.312375,195.744761 560.305626,205.354662 C560.258384,272.222747 559.839952,339.095544 560.456801,405.958916 C560.792222,442.326419 535.147744,482.510281 507.409757,498.098181 C447.997149,531.483417 389.26618,566.073003 330.164696,600.010934 C312.452203,610.182283 292.991069,612.864304 272.874617,611.773723 C255.380113,610.82586 239.396014,605.45576 224.199512,596.609265 C167.144295,563.393675 109.866364,530.557769 52.6491735,497.619537 C28.4172411,483.669528 13.7647002,462.264524 4.70024998,436.523452 C1.28058137,426.813244 -0.0233064807,416.744895 0.000314676041,406.446312 C0.0759023777,372.900182 0.0286600641,339.353379 0.0286600641,305.806576 L0.123819581,305.806576" id="Fill-2"></path>
                    </g>
                    <g id="Racing-2-Copy-69" transform="translate(106.672038, 137.440678)" fill="#F6F6F6">
                        <g id="Your_Icon">
                            <path d="M235.888315,67.6663234 C251.410414,66.462197 263.057029,52.8818836 261.823004,37.3677911 C260.588979,21.8218012 246.946147,10.2470362 231.424048,11.4511626 C215.869687,12.6592762 204.271466,26.1917435 205.505491,41.7377334 C206.739516,57.2518259 220.337987,68.874437 235.888315,67.6663234 L235.888315,67.6663234 Z" id="Shape"></path>
                            <path d="M189.640607,160.021226 L225.951591,212.38079 L201.404172,293.412119 C198.383634,300.784403 200.956536,309.412647 207.804165,314.065678 C215.700311,319.336722 226.387129,317.27934 231.633752,309.476442 C232.327387,308.395918 232.896006,307.247612 233.363807,306.103293 C233.363807,306.103293 257.733784,225.363027 259.193644,220.769803 C261.512481,213.469288 261.484252,210.454985 260.863207,204.215058 C260.242162,197.975131 233.404134,111.449477 233.404134,111.449477 L262.004478,77.6302703 L279.280828,92.2273129 L279.305025,92.4346459 C280.164003,98.8539954 286.124425,103.371463 292.61717,102.522195 C299.109916,101.672927 303.679035,95.7798846 302.820057,89.3645222 C302.820057,89.3645222 299.359948,52.6944865 297.420189,46.5422776 C294.133489,36.1317673 284.055618,36.8693944 284.055618,36.8693944 L270.969307,35.1509226 C271.029798,35.6493193 271.082224,36.147716 271.122552,36.6500999 C272.09848,48.9425561 266.956709,60.329924 258.25401,67.8457462 L258.25401,67.8457462 C257.665227,68.3561044 257.05628,68.8385525 256.435235,69.3130261 C256.310219,69.4087183 256.185204,69.5044104 256.060188,69.5961154 C255.427044,70.0666019 254.781803,70.5251269 254.116397,70.9557416 C249.035118,74.2451599 243.086794,76.3503875 236.630343,76.8527714 C235.650382,76.9285277 234.658323,76.9683995 233.682395,76.9683995 C224.233635,76.9683995 215.192183,73.4397508 208.219539,67.03635 C201.234796,60.6209876 196.9762,51.8930646 196.226106,42.463399 C195.798634,37.0687531 196.556793,31.85353 198.266684,27.0569601 L139.650496,19.4135483 C139.650496,19.4135483 130.113015,16.1041942 124.196954,25.3105781 C120.704583,30.7490829 107.706993,65.2660449 107.706993,65.2660449 C106.452804,68.2444636 106.533459,71.4421768 107.678763,74.2092753 L26.9267482,85.9754246 L26.3339322,81.2386624 C26.1605235,79.8630875 24.8942364,78.88623 23.4989009,79.0536913 C22.1075982,79.2251397 21.1155389,80.4771122 21.2889477,81.8566743 L21.8978946,86.7090646 L15.9697353,87.5742813 C14.5824654,87.7776271 13.6226682,89.0535227 13.8243062,90.4251104 C14.0098133,91.6730957 15.0946261,92.5702098 16.3367166,92.5702098 C16.4617322,92.5702098 16.5867478,92.5622355 16.7117634,92.5422996 L22.5189399,91.6970188 L23.160149,96.8205369 C23.3214594,98.0924453 24.4143378,99.0254439 25.6806249,99.0254439 C25.7854767,99.0254439 25.8903285,99.0214567 25.9951803,99.005508 C27.386483,98.8340596 28.3785423,97.582087 28.2051336,96.202525 L27.5477934,90.9633788 L111.074348,78.794525 C111.961556,79.5241777 112.973779,80.1382025 114.094887,80.6007146 C119.43023,82.7976473 125.463241,80.8479194 128.536206,76.2507082 L141.170847,74.408634 C142.558117,74.2052881 143.517914,72.9293926 143.316276,71.5578049 C143.110605,70.1862171 141.816089,69.2332826 140.432852,69.4366285 L130.992157,70.8122034 L141.211175,45.2065744 L173.945099,59.0500412 L148.518539,133.893277 L148.635489,133.965046 L81.0947999,225.008169 L22.652021,282.726494 C22.180188,282.98566 21.7244859,283.280711 21.317177,283.631582 C14.5018102,289.540574 13.5218491,299.767674 19.2322393,306.852881 C25.0232848,314.033781 35.5366939,315.305689 42.9005163,309.791428 C43.1263509,309.623967 43.3602511,309.460493 43.6022167,309.312967 L120.902188,236.834126 L189.640607,160.021226 L189.640607,160.021226 Z M275.752162,61.3705763 L278.442014,84.9068621 L265.26295,73.7706862 L275.752162,61.3705763 L275.752162,61.3705763 Z" id="Shape"></path>
                            <path d="M179.990209,8.33319285 L176.477674,12.1808154 C175.53804,13.2095062 175.618695,14.8003885 176.663181,15.7293999 C177.147112,16.1640018 177.756059,16.375322 178.365006,16.375322 C179.058641,16.375322 179.752276,16.0962199 180.252338,15.5459899 L183.857627,11.598688 L199.234546,24.5928869 C199.932214,23.0099789 200.738766,21.4789043 201.642105,20.0156115 L187.26531,7.87068071 L190.471356,4.35798076 C191.410989,3.32928997 191.330334,1.7384077 190.285849,0.809396244 C189.245396,-0.123602382 187.636325,-0.0398717361 186.696691,0.99280623 L183.397892,4.60518552 L178.836839,0.749588639 C177.768157,-0.151512597 176.163118,-0.0279102153 175.255747,1.02869079 C174.344343,2.0852918 174.469358,3.66819973 175.53804,4.56930096 L179.990209,8.33319285 L179.990209,8.33319285 Z" id="Shape"></path>
                            <path d="M334.138482,311.996335 L322.620916,311.996335 L322.620916,316.418111 C322.620916,322.187551 317.882421,323.957856 317.882421,323.957856 L92.7535132,323.957856 L92.7535132,331.932203 L321.907117,331.932203 C336.618631,331.932203 334.138482,311.996335 334.138482,311.996335 L334.138482,311.996335 Z" id="Shape"></path>
                            <path d="M12.1677689,325.283548 L0.705254151,313.235188 L8.5873466,305.727243 L20.0498614,317.775603 L12.1677689,325.283548 L12.1677689,325.283548 Z" id="Rectangle-path"></path>
                        </g>
                    </g>
                </g>
            </g>
        </g>
    </g>
</svg>