<?xml version="1.0" encoding="UTF-8" standalone="no"?>
<svg width="266px" height="89px" viewBox="0 0 266 89" version="1.1" xmlns="http://www.w3.org/2000/svg" xmlns:xlink="http://www.w3.org/1999/xlink" xmlns:sketch="http://www.bohemiancoding.com/sketch/ns">
    <!-- Generator: Sketch 3.3.1 (12005) - http://www.bohemiancoding.com/sketch -->
    <title>Discover-Logo</title>
    <desc>Created with Sketch.</desc>
    <defs></defs>
    <g id="Page-1" stroke="none" stroke-width="1" fill="none" fill-rule="evenodd" sketch:type="MSPage">
        <g id="Discover-Logo" sketch:type="MSLayerGroup">
            <g id="Page-1" sketch:type="MSShapeGroup">
                <g id="Group-6-Copy-2">
                    <path d="M1.09864532,0.988019455 L1.09864532,37.9039542 L17.1016121,37.9039542 C19.9419797,37.9039542 22.4099451,37.4300149 24.5055821,36.482122 C26.6012192,35.5342291 28.3504438,34.2330502 29.7533083,32.5785463 C31.1561728,30.9240423 32.2039756,28.9593483 32.8967482,26.6844054 C33.5895208,24.4094625 33.9359019,21.9277438 33.9359019,19.2391749 C33.9359019,16.1714488 33.511585,13.5001544 32.6629386,11.2252114 C31.8142922,8.95026852 30.6365964,7.05451118 29.1298161,5.53788256 C27.6230357,4.02125394 25.839173,2.88379954 23.7781746,2.12548523 C21.7171761,1.36717092 19.4916775,0.988019455 17.1016121,0.988019455 L1.09864532,0.988019455 L1.09864532,0.988019455 Z M9.25600177,31.0791596 L9.25600177,7.81281412 L15.0752624,7.81281412 C17.0843029,7.81281412 18.7729108,8.09717772 20.1411367,8.66591345 C21.5093625,9.23464918 22.6091225,10.0532717 23.4404496,11.1218055 C24.2717767,12.1903393 24.8692841,13.474284 25.2329897,14.9736782 C25.5966953,16.4730724 25.7785454,18.1534028 25.7785454,20.0147197 C25.7785454,22.0483808 25.5187596,23.7717966 24.9991801,25.1850187 C24.4796007,26.5982408 23.7868385,27.7443123 22.9208728,28.6232675 C22.054907,29.5022228 21.0677209,30.1312695 19.9592848,30.5104267 C18.8508486,30.8895838 17.707791,31.0791596 16.5300776,31.0791596 L9.25600177,31.0791596 L9.25600177,31.0791596 Z M39.5992895,0.988019455 L39.5992895,37.9039542 L47.7566459,37.9039542 L47.7566459,0.988019455 L39.5992895,0.988019455 L39.5992895,0.988019455 Z M60.4862786,25.6503456 L52.5887106,25.6503456 C52.5540719,27.9252885 52.9697292,29.8899825 53.835695,31.5444865 C54.7016607,33.1989904 55.8706969,34.5604889 57.3428387,35.6290227 C58.8149804,36.6975565 60.5122478,37.4817106 62.4346917,37.9815087 C64.3571357,38.4813068 66.3401675,38.7312021 68.3838466,38.7312021 C70.9124666,38.7312021 73.1379651,38.4382214 75.0604091,37.8522512 C76.982853,37.2662811 78.5935251,36.4476586 79.8924737,35.3963592 C81.1914223,34.3450598 82.1699489,33.0955834 82.8280829,31.6478924 C83.4862168,30.2002015 83.8152789,28.6318931 83.8152789,26.9429204 C83.8152789,24.8747904 83.373643,23.1772259 82.4903579,21.8501759 C81.6070729,20.5231258 80.55927,19.4632251 79.346918,18.670442 C78.134566,17.8776588 76.9135726,17.3003146 75.6839013,16.9383918 C74.4542299,16.5764691 73.4930224,16.3265738 72.8002498,16.1886985 C70.4794616,15.6027283 68.6003441,15.1201719 67.162841,14.7410148 C65.7253379,14.3618576 64.5995993,13.9827061 63.7855915,13.603549 C62.9715837,13.2243918 62.4260335,12.810772 62.1489245,12.3626772 C61.8718154,11.9145824 61.733263,11.328621 61.733263,10.6047756 C61.733263,9.81199243 61.9064536,9.15709444 62.2528399,8.64006195 C62.5992261,8.12302947 63.040862,7.69217553 63.5777608,7.34748721 C64.1146596,7.00279889 64.712167,6.76152068 65.3703009,6.62364535 C66.0284349,6.48577002 66.686559,6.41683339 67.3446929,6.41683339 C68.3492132,6.41683339 69.2757826,6.50300418 70.124429,6.67534834 C70.9730755,6.8476925 71.7264543,7.14067318 72.3845883,7.55429917 C73.0427223,7.96792515 73.5709534,8.53665236 73.9692977,9.26049783 C74.3676419,9.98434331 74.6014492,10.8977537 74.6707264,12.0007563 L82.5682944,12.0007563 C82.5682944,9.8636887 82.1612967,8.04548507 81.3472889,6.54609087 C80.5332811,5.04669666 79.4335211,3.81445439 78.0479759,2.84932709 C76.6624307,1.88419979 75.0777372,1.1862164 73.2938478,0.755356001 C71.5099584,0.324495598 69.64816,0.109068627 67.7083967,0.109068627 C66.0457425,0.109068627 64.3831132,0.333112676 62.720459,0.781207496 C61.0578048,1.22930231 59.5683661,1.91866862 58.2520982,2.84932709 C56.9358302,3.77998556 55.8707084,4.9432912 55.0567006,6.33927891 C54.2426928,7.73526661 53.835695,9.38112866 53.835695,11.2769144 C53.835695,12.9658872 54.1560975,14.4049394 54.7969121,15.5941141 C55.4377268,16.7832888 56.277701,17.7742529 57.3168598,18.567036 C58.3560187,19.3598191 59.5337145,20.0061001 60.8499824,20.5058981 C62.1662503,21.0056962 63.5171366,21.4279331 64.9026818,21.7726214 C66.2535883,22.1517785 67.5871555,22.4964617 68.9034235,22.8066812 C70.2196914,23.1169007 71.3973871,23.478818 72.436546,23.892444 C73.4757049,24.30607 74.315679,24.8230947 74.9564937,25.4435337 C75.5973083,26.0639726 75.9177108,26.873978 75.9177108,27.8735742 C75.9177108,28.8042327 75.6752441,29.5711527 75.1903033,30.1743572 C74.7053625,30.7775618 74.0991955,31.2515011 73.3717843,31.5961895 C72.6443731,31.9408778 71.8650156,32.1735389 71.0336885,32.2941798 C70.2023614,32.4148207 69.4230039,32.4751403 68.6955927,32.4751403 C67.6217952,32.4751403 66.5826519,32.3458841 65.5781317,32.0873679 C64.5736114,31.8288516 63.6989991,31.432466 62.9542686,30.8981991 C62.2095381,30.3639322 61.6120307,29.6659488 61.1617285,28.804228 C60.7114263,27.9425072 60.4862786,26.8912236 60.4862786,25.6503456 L60.4862786,25.6503456 Z M113.379201,13.396737 L121.276769,13.396737 C121.034299,11.2596694 120.445451,9.36391209 119.510208,7.70940814 C118.574965,6.05490419 117.38861,4.6675545 115.951107,3.54731745 C114.513604,2.42708041 112.885612,1.5739896 111.067084,0.988019455 C109.248556,0.402049307 107.317482,0.109068627 105.273803,0.109068627 C102.433435,0.109068627 99.8788743,0.608859198 97.6100441,1.60845533 C95.3412139,2.60805147 93.4274583,3.98678408 91.86872,5.74469452 C90.3099816,7.50260497 89.1149668,9.5620868 88.2836397,11.9232018 C87.4523126,14.2843168 87.0366553,16.8435892 87.0366553,19.6010958 C87.0366553,22.2896647 87.4523126,24.7972347 88.2836397,27.1238808 C89.1149668,29.450527 90.3099816,31.4755405 91.86872,33.1989821 C93.4274583,34.9224238 95.3412139,36.2753051 97.6100441,37.2576668 C99.8788743,38.2400286 102.433435,38.7312021 105.273803,38.7312021 C107.559952,38.7312021 109.655558,38.3865189 111.560682,37.6971423 C113.465807,37.0077656 115.128436,36.0081845 116.54862,34.6983688 C117.968804,33.3885532 119.111861,31.8030107 119.977827,29.9416938 C120.843793,28.0803768 121.380684,25.9950438 121.588515,23.685632 L113.690947,23.685632 C113.3792,26.1673879 112.521907,28.1665502 111.119042,29.6831788 C109.716178,31.1998074 107.767784,31.9581104 105.273803,31.9581104 C103.437955,31.9581104 101.87924,31.6048102 100.597611,30.8981991 C99.3159816,30.191588 98.2768383,29.2523264 97.4801499,28.0803861 C96.6834614,26.9084458 96.1032731,25.5900328 95.7395674,24.1251074 C95.3758618,22.660182 95.1940118,21.1521933 95.1940118,19.6010958 C95.1940118,17.9810607 95.3758618,16.4127523 95.7395674,14.8961237 C96.1032731,13.3794951 96.6834614,12.0266137 97.4801499,10.837439 C98.2768383,9.64826431 99.3159816,8.70038564 100.597611,7.99377458 C101.87924,7.28716352 103.437955,6.93386329 105.273803,6.93386329 C106.278323,6.93386329 107.23953,7.09758779 108.157454,7.42504169 C109.075378,7.7524956 109.898033,8.20920078 110.625444,8.79517092 C111.352855,9.38114107 111.959022,10.0618903 112.443963,10.837439 C112.928904,11.6129877 113.240647,12.4660786 113.379201,13.396737 L113.379201,13.396737 Z M125.537299,19.6010958 C125.537299,22.2896647 125.952957,24.7972347 126.784284,27.1238808 C127.615611,29.450527 128.810626,31.4755405 130.369364,33.1989821 C131.928102,34.9224238 133.841858,36.2753051 136.110688,37.2576668 C138.379518,38.2400286 140.934079,38.7312021 143.774447,38.7312021 C146.649453,38.7312021 149.212673,38.2400286 151.464184,37.2576668 C153.715695,36.2753051 155.620791,34.9224238 157.179529,33.1989821 C158.738268,31.4755405 159.933282,29.450527 160.764609,27.1238808 C161.595937,24.7972347 162.011594,22.2896647 162.011594,19.6010958 C162.011594,16.8435892 161.595937,14.2843168 160.764609,11.9232018 C159.933282,9.5620868 158.738268,7.50260497 157.179529,5.74469452 C155.620791,3.98678408 153.715695,2.60805147 151.464184,1.60845533 C149.212673,0.608859198 146.649453,0.109068627 143.774447,0.109068627 C140.934079,0.109068627 138.379518,0.608859198 136.110688,1.60845533 C133.841858,2.60805147 131.928102,3.98678408 130.369364,5.74469452 C128.810626,7.50260497 127.615611,9.5620868 126.784284,11.9232018 C125.952957,14.2843168 125.537299,16.8435892 125.537299,19.6010958 L125.537299,19.6010958 Z M133.694656,19.6010958 C133.694656,17.9810607 133.876506,16.4127523 134.240212,14.8961237 C134.603917,13.3794951 135.184106,12.0266137 135.980794,10.837439 C136.777482,9.64826431 137.816626,8.70038564 139.098255,7.99377458 C140.379884,7.28716352 141.938599,6.93386329 143.774447,6.93386329 C145.610294,6.93386329 147.169009,7.28716352 148.450638,7.99377458 C149.732268,8.70038564 150.771411,9.64826431 151.568099,10.837439 C152.364788,12.0266137 152.944976,13.3794951 153.308682,14.8961237 C153.672387,16.4127523 153.854237,17.9810607 153.854237,19.6010958 C153.854237,21.1521933 153.672387,22.660182 153.308682,24.1251074 C152.944976,25.5900328 152.364788,26.9084458 151.568099,28.0803861 C150.771411,29.2523264 149.732268,30.191588 148.450638,30.8981991 C147.169009,31.6048102 145.610294,31.9581104 143.774447,31.9581104 C141.938599,31.9581104 140.379884,31.6048102 139.098255,30.8981991 C137.816626,30.191588 136.777482,29.2523264 135.980794,28.0803861 C135.184106,26.9084458 134.603917,25.5900328 134.240212,24.1251074 C133.876506,22.660182 133.694656,21.1521933 133.694656,19.6010958 L133.694656,19.6010958 Z M184.821017,37.9039542 L197.134989,0.988019455 L188.717844,0.988019455 L180.352656,26.9429204 L180.248741,26.9429204 L171.987469,0.988019455 L163.622282,0.988019455 L175.624507,37.9039542 L184.821017,37.9039542 L184.821017,37.9039542 Z M200.304407,0.988019455 L200.304407,37.9039542 L228.465472,37.9039542 L228.465472,31.0791596 L208.461764,31.0791596 L208.461764,22.0311363 L226.439123,22.0311363 L226.439123,15.7233716 L208.461764,15.7233716 L208.461764,7.81281412 L228.049811,7.81281412 L228.049811,0.988019455 L200.304407,0.988019455 L200.304407,0.988019455 Z M233.972987,0.988019455 L233.972987,37.9039542 L242.130343,37.9039542 L242.130343,23.47882 L250.2877,23.47882 C252.331379,23.47882 253.803498,23.9269081 254.704103,24.8230978 C255.604707,25.7192874 256.193555,27.1324883 256.470664,29.062743 C256.678496,30.5449027 256.834367,32.0959769 256.938283,33.716012 C257.042199,35.3360472 257.319304,36.7320139 257.769606,37.9039542 L265.926963,37.9039542 C265.545938,37.3869217 265.260173,36.757875 265.069661,36.0167951 C264.879148,35.2757152 264.740596,34.491561 264.653999,33.664309 C264.567403,32.8370571 264.506786,32.0270517 264.472148,31.2342685 C264.437509,30.4414854 264.402871,29.7521191 264.368232,29.1661489 C264.298955,28.2354905 264.169062,27.3048459 263.97855,26.3741875 C263.788037,25.443529 263.484954,24.5904382 263.06929,23.8148895 C262.653626,23.0393408 262.116736,22.3672086 261.458602,21.7984729 C260.800468,21.2297371 259.969153,20.8075003 258.964633,20.5317496 L258.964633,20.4283436 C261.042951,19.6010917 262.541049,18.3947006 263.458973,16.8091344 C264.376896,15.2235681 264.835851,13.3450449 264.835851,11.1735085 C264.835851,9.76028634 264.584725,8.44187328 264.082465,7.21822973 C263.580205,5.99458619 262.852804,4.91745134 261.900242,3.98679287 C260.94768,3.0561344 259.804622,2.3236827 258.471035,1.7894158 C257.137448,1.2551489 255.639349,0.988019455 253.976695,0.988019455 L233.972987,0.988019455 L233.972987,0.988019455 Z M242.130343,17.6880852 L242.130343,7.29578422 L251.067065,7.29578422 C252.937551,7.29578422 254.340394,7.70078692 255.275637,8.51080448 C256.21088,9.32082204 256.678495,10.6220009 256.678495,12.4143802 C256.678495,14.2756972 256.21088,15.6199614 255.275637,16.4472134 C254.340394,17.2744654 252.937551,17.6880852 251.067065,17.6880852 L242.130343,17.6880852 L242.130343,17.6880852 Z" id="DISCOVER" fill="#5C595B"></path>
                    <path d="M13.494893,67.5394884 L0.0986453202,86.5990874 L5.82446085,86.5990874 L16.5198521,71.2787013 L26.8911406,86.5990874 L33.1571274,86.5990874 L19.5988284,67.5394884 L32.3468705,49.5185597 L26.621055,49.5185597 L16.5738692,64.0080096 L6.95882053,49.5185597 L0.800867979,49.5185597 L13.494893,67.5394884 L13.494893,67.5394884 Z M61.3428042,60.7191848 L66.4810019,60.7191848 C66.1925402,58.7481058 65.5795684,57.0104702 64.642068,55.5062258 C63.7045675,54.0019813 62.5327096,52.7484631 61.126459,51.7456335 C59.7202084,50.7428038 58.1156644,49.9820479 56.312779,49.463343 C54.5098936,48.944638 52.5988638,48.6852894 50.5796321,48.6852894 C47.6229001,48.6852894 44.9997411,49.1953416 42.7100767,50.2154614 C40.4204122,51.2355812 38.5093824,52.6274187 36.9769298,54.3910156 C35.4444772,56.1546126 34.2816335,58.2207564 33.488364,60.5895092 C32.6950944,62.9582619 32.2984655,65.4912332 32.2984655,68.1884991 C32.2984655,70.885765 32.6680515,73.4100914 33.4072345,75.761554 C34.1464175,78.1130165 35.2551754,80.1532255 36.7335415,81.8822421 C38.2119075,83.6112587 40.0688516,84.9685164 42.3044295,85.9540559 C44.5400074,86.9395953 47.154152,87.4323577 50.1469418,87.4323577 C55.0868478,87.4323577 58.9810219,86.1356147 61.8295808,83.5420898 C64.6781397,80.9485649 66.354798,77.3176845 66.8596059,72.6493397 L61.7214082,72.6493397 C61.6132351,74.1708743 61.2887206,75.5886466 60.747855,76.9026992 C60.2069893,78.2167518 59.4588031,79.3492407 58.5032738,80.3001999 C57.5477446,81.251159 56.4119438,81.994625 55.0958375,82.5306201 C53.7797311,83.0666153 52.2743444,83.3346088 50.5796321,83.3346088 C48.2719388,83.3346088 46.2887946,82.9196511 44.63014,82.0897231 C42.9714855,81.2597951 41.6103274,80.1445961 40.546625,78.7440927 C39.4829226,77.3435892 38.6986792,75.7010481 38.1938713,73.81642 C37.6890634,71.9317919 37.4366632,69.9348077 37.4366632,67.8254075 C37.4366632,65.8889089 37.6890634,64.0215989 38.1938713,62.2234217 C38.6986792,60.4252444 39.4829226,58.8259281 40.546625,57.4254246 C41.6103274,56.0249212 42.9624712,54.9097222 44.6030969,54.0797942 C46.2437226,53.2498662 48.2178525,52.8349085 50.5255458,52.8349085 C53.2298739,52.8349085 55.5645755,53.4919249 57.5297206,54.8059776 C59.4948657,56.1200302 60.7658808,58.0910795 61.3428042,60.7191848 L61.3428042,60.7191848 Z" id="XC-2-Copy-2" fill="#FDBD14"></path>
                    <path d="M241.71531,71.0884608 L238.774733,71.0884608 L238.774733,74.6315231 L241.71531,74.6315231 L241.71531,71.0884608 L241.71531,71.0884608 Z M249.712788,66.8186165 L252.653365,66.8186165 C252.653365,65.3650452 252.293222,64.2143185 251.572926,63.366402 C250.852629,62.5184854 249.779627,62.0945335 248.353885,62.0945335 C247.641015,62.0945335 246.987559,62.1929509 246.393501,62.3897886 C245.799442,62.5866264 245.287074,62.9310874 244.856381,63.4231818 C244.425688,63.9152763 244.091535,64.5739159 243.853911,65.3991204 C243.616288,66.2243249 243.497478,67.2652783 243.497478,68.5220118 C243.497478,69.7484626 243.594011,70.7742749 243.78708,71.5994794 C243.980149,72.4246839 244.266036,73.0833235 244.644748,73.575418 C245.023461,74.0675124 245.498701,74.4081881 246.070483,74.5974552 C246.642264,74.7867223 247.314283,74.8813544 248.08656,74.8813544 C249.720222,74.8813544 250.889758,74.4611877 251.595203,73.6208418 C252.300648,72.7804959 252.653365,71.5578489 252.653365,69.9528639 L249.712788,69.9528639 C249.712788,70.9521942 249.593978,71.6789689 249.356355,72.1332099 C249.118731,72.5874509 248.740024,72.8145681 248.220223,72.8145681 C247.878639,72.8145681 247.600178,72.7350771 247.384831,72.5760927 C247.169485,72.4171084 247.002409,72.1634942 246.883597,71.8152428 C246.764785,71.4669913 246.683103,71.024113 246.638549,70.4865944 C246.593994,69.9490759 246.571717,69.3017921 246.571717,68.5447238 C246.571717,67.8330795 246.593994,67.216078 246.638549,66.6937008 C246.683103,66.1713237 246.764785,65.7398012 246.883597,65.3991204 C247.002409,65.0584396 247.180624,64.8010402 247.418247,64.6269145 C247.655871,64.4527888 247.960321,64.3657272 248.331608,64.3657272 C248.628638,64.3657272 248.866258,64.4376476 249.044475,64.5814906 C249.222693,64.7253336 249.360067,64.9145979 249.456602,65.1492891 C249.553136,65.3839803 249.619967,65.6451649 249.657095,65.9328509 C249.694224,66.2205369 249.712788,66.5157891 249.712788,66.8186165 L249.712788,66.8186165 Z M253.856328,68.5220118 C253.856328,69.5819076 253.930585,70.516873 254.079099,71.3269361 C254.227614,72.1369993 254.480085,72.81078 254.836521,73.3482986 C255.192956,73.8858171 255.675622,74.2794868 256.284532,74.5293194 C256.893443,74.7791519 257.658282,74.8964958 258.579073,74.8813544 C259.45531,74.8813544 260.19416,74.7526547 260.795645,74.4952514 C261.397129,74.2378482 261.883508,73.8403933 262.254794,73.3028747 C262.626081,72.7653562 262.893404,72.0953607 263.05677,71.2928682 C263.220136,70.4903757 263.301818,69.5667662 263.301818,68.5220118 C263.301818,67.4469747 263.227562,66.508224 263.079047,65.7057316 C262.930532,64.9032391 262.678061,64.2294583 262.321626,63.6843691 C261.96519,63.1392799 261.482525,62.7342544 260.873614,62.4692804 C260.264704,62.2043065 259.499865,62.0793921 258.579073,62.0945335 C257.702836,62.0945335 256.963987,62.234589 256.362502,62.5147043 C255.761017,62.7948196 255.274639,63.2036304 254.903352,63.7411489 C254.532065,64.2786675 254.264743,64.9486629 254.101377,65.7511554 C253.93801,66.5536479 253.856328,67.4772575 253.856328,68.5220118 L253.856328,68.5220118 Z M256.930568,68.5220118 C256.930568,67.9012158 256.945419,67.3258524 256.975122,66.7959046 C257.004825,66.2659567 257.075369,65.8117225 257.186755,65.4331883 C257.298141,65.0546541 257.465217,64.7594019 257.687989,64.5474227 C257.910761,64.3354436 258.207786,64.2294556 258.579073,64.2294556 C259.202835,64.2294556 259.633521,64.5625607 259.871145,65.2287809 C260.108769,65.895001 260.227579,66.9927337 260.227579,68.5220118 C260.227579,70.0512899 260.108769,71.1490226 259.871145,71.8152428 C259.633521,72.481463 259.202835,72.8145681 258.579073,72.8145681 C258.207786,72.8145681 257.910761,72.7085801 257.687989,72.4966009 C257.465217,72.2846218 257.298141,71.9893695 257.186755,71.6108354 C257.075369,71.2323012 257.004825,70.778067 256.975122,70.2481191 C256.945419,69.7181712 256.930568,69.1428079 256.930568,68.5220118 L256.930568,68.5220118 Z M264.950323,62.4125006 L264.950323,74.6315231 L268.024563,74.6315231 L268.024563,66.5914971 C268.024563,65.8647115 268.169363,65.3347716 268.458966,65.0016615 C268.74857,64.6685514 269.138415,64.5019989 269.628514,64.5019989 C270.059207,64.5019989 270.36737,64.6382691 270.553014,64.9108137 C270.738657,65.1833583 270.831477,65.577028 270.831477,66.0918345 L270.831477,74.6315231 L273.905717,74.6315231 L273.905717,66.5914971 C273.905717,65.8647115 274.050516,65.3347716 274.34012,65.0016615 C274.629724,64.6685514 275.019569,64.5019989 275.509668,64.5019989 C275.940361,64.5019989 276.248524,64.6382691 276.434167,64.9108137 C276.619811,65.1833583 276.712631,65.577028 276.712631,66.0918345 L276.712631,74.6315231 L279.786871,74.6315231 L279.786871,65.7511554 C279.786871,64.5701288 279.545538,63.6654456 279.062865,63.0370789 C278.580192,62.4087121 277.826491,62.0945335 276.80174,62.0945335 C276.074017,62.0945335 275.446552,62.2573007 274.919325,62.5828401 C274.392097,62.9083795 274.009678,63.3966813 273.772054,64.0477601 L273.7275,64.0477601 C273.564134,63.4118227 273.241119,62.9273062 272.758446,62.5941961 C272.275773,62.261086 271.678011,62.0945335 270.96514,62.0945335 C270.296824,62.0945335 269.721338,62.2156626 269.238665,62.4579245 C268.755992,62.7001863 268.321593,63.1014266 267.935454,63.6616572 L267.8909,63.6616572 L267.8909,62.4125006 L264.950323,62.4125006 L264.950323,62.4125006 Z" id=".com-something-3-copy-2" fill="#5C595B" transform="translate(259.280802, 68.487979) rotate(-90.000000) translate(-259.280802, -68.487979) "></path>
                    <path d="M82.9521729,74.6407691 L79.2793067,74.6407691 C79.1712807,77.0049083 79.4863519,79.0287244 80.2245296,80.7122781 C80.9627074,82.3958318 82.0159453,83.7748923 83.3842748,84.849501 C84.7526043,85.9241097 86.4089784,86.7210993 88.3534467,87.2404935 C90.297915,87.7598877 92.4043907,88.0195809 94.672937,88.0195809 C96.9414833,88.0195809 98.8859224,87.8136173 100.506313,87.401684 C102.126703,86.9897506 103.48601,86.4524543 104.584274,85.7897789 C105.682539,85.1271036 106.546734,84.3838437 107.176886,83.559977 C107.807038,82.7361103 108.293147,81.9212109 108.63523,81.1152543 C108.977312,80.3092978 109.193361,79.548128 109.283383,78.8317222 C109.373404,78.1153164 109.418414,77.5422003 109.418414,77.1123568 C109.418414,75.536264 109.157355,74.1930233 108.63523,73.0825942 C108.113104,71.9721652 107.392941,71.0318967 106.47472,70.2617604 C105.556499,69.4916242 104.494259,68.8468686 103.287969,68.3274744 C102.081678,67.8080801 100.794387,67.3692882 99.4260579,67.0110853 L90.0278416,64.700688 C89.2356508,64.5215866 88.488482,64.2887582 87.7863129,64.0021959 C87.0841438,63.7156335 86.4630036,63.3395261 85.9228735,62.8738623 C85.3827434,62.4081985 84.9596479,61.8440374 84.6535741,61.181362 C84.3475004,60.5186867 84.1944659,59.739607 84.1944659,58.8440997 C84.1944659,57.4112881 84.4645269,56.2113263 85.0046569,55.2441785 C85.544787,54.2770306 86.2559476,53.497951 87.1381601,52.9069162 C88.0203725,52.3158814 89.0466043,51.8860443 90.2168861,51.6173921 C91.387168,51.34874 92.6024424,51.2144159 93.8627459,51.2144159 C95.2310755,51.2144159 96.5363702,51.4024696 97.7786694,51.7785827 C99.0209686,52.1546957 100.119217,52.7099019 101.073446,53.4442179 C102.027676,54.1785338 102.801851,55.0919375 103.395994,56.1844564 C103.990137,57.2769753 104.323212,58.5575315 104.39523,60.0261634 L108.068096,60.0261634 C108.068096,58.0560474 107.681009,56.3277443 106.906822,54.8412022 C106.132636,53.3546601 105.097402,52.1099237 103.80109,51.1069556 C102.504777,50.1039874 100.992436,49.3517726 99.2640197,48.8502885 C97.5356035,48.3488044 95.7171928,48.0980661 93.8087332,48.0980661 C91.1080828,48.0980661 88.8935827,48.4831285 87.1651664,49.2532648 C85.4367502,50.023401 84.0774432,50.9636696 83.0872047,52.0740986 C82.0969663,53.1845276 81.4218138,54.3665795 81.0617271,55.6202897 C80.7016404,56.8739998 80.5215997,57.9665023 80.5215997,58.8978299 C80.5215997,60.4022821 80.7646546,61.6738834 81.2507717,62.7126718 C81.7368887,63.7514603 82.3760331,64.6290442 83.1682239,65.34545 C83.9604146,66.0618559 84.887624,66.6349719 85.9498798,67.0648154 C87.0121357,67.4946589 88.1013817,67.8528565 89.2176505,68.1394188 L97.8056758,70.2348953 C98.7058926,70.4498171 99.6240999,70.7274202 100.560325,71.0677129 C101.496551,71.4080057 102.351744,71.8467977 103.12593,72.384102 C103.900117,72.9214064 104.530259,73.5840719 105.016376,74.3721183 C105.502493,75.1601647 105.745548,76.0914783 105.745548,77.166087 C105.745548,78.5630783 105.403471,79.7540852 104.719306,80.7391432 C104.035141,81.7242012 103.179948,82.5301456 102.153701,83.1570007 C101.127454,83.7838558 100.020204,84.2405577 98.8319178,84.52712 C97.6436316,84.8136823 96.5453836,84.9569613 95.5371408,84.9569613 C93.7727159,84.9569613 92.1163418,84.7868175 90.5679689,84.4465247 C89.019596,84.106232 87.6782931,83.5420709 86.54402,82.7540245 C85.4097468,81.9659781 84.5185455,80.9092953 83.8703894,79.5839445 C83.2222334,78.2585938 82.9161642,76.6108851 82.9521729,74.6407691 L82.9521729,74.6407691 Z M115.25179,48.9040187 L115.25179,87.2673586 L118.924656,87.2673586 L118.924656,74.1034674 L126.324401,67.2797361 L142.366184,87.2673586 L147.119305,87.2673586 L129.079051,64.7544182 L146.309114,48.9040187 L141.339942,48.9040187 L118.924656,69.5364031 L118.924656,48.9040187 L115.25179,48.9040187 L115.25179,48.9040187 Z M150.522108,48.9040187 L150.522108,87.2673586 L154.194974,87.2673586 L154.194974,48.9040187 L150.522108,48.9040187 L150.522108,48.9040187 Z M162.512936,48.9040187 L162.512936,87.2673586 L166.185802,87.2673586 L166.185802,48.9040187 L162.512936,48.9040187 L162.512936,48.9040187 Z M174.179687,48.9040187 L174.179687,87.2673586 L177.852553,87.2673586 L177.852553,54.8143371 L177.960579,54.8143371 L200.429878,87.2673586 L204.534846,87.2673586 L204.534846,48.9040187 L200.861979,48.9040187 L200.861979,81.3570401 L200.753954,81.3570401 L178.284655,48.9040187 L174.179687,48.9040187 L174.179687,48.9040187 Z M245.206437,87.2673586 L245.206437,67.7633076 L228.840578,67.7633076 L228.840578,70.8796573 L241.965673,70.8796573 C242.001682,72.9214139 241.731621,74.801951 241.155482,76.521325 C240.579343,78.2406989 239.715148,79.7272187 238.56287,80.9809289 C237.410593,82.2346391 235.997274,83.2107274 234.322871,83.9092231 C232.648467,84.6077187 230.749038,84.9569613 228.624527,84.9569613 C226.067911,84.9569613 223.871415,84.4733947 222.034973,83.5062468 C220.19853,82.5390989 218.695191,81.2585428 217.524909,79.6645398 C216.354627,78.0705368 215.490432,76.2616393 214.932298,74.2377928 C214.374163,72.2139464 214.0951,70.1632655 214.0951,68.0856886 C214.0951,65.9722914 214.374163,63.9126556 214.932298,61.9067193 C215.490432,59.900783 216.354627,58.1008404 217.524909,56.5068374 C218.695191,54.9128345 220.19853,53.6322783 222.034973,52.6651304 C223.871415,51.6979826 226.067911,51.2144159 228.624527,51.2144159 C230.460969,51.2144159 232.117343,51.5099289 233.593699,52.1009637 C235.070054,52.6919985 236.339341,53.4531682 237.401597,54.3844958 C238.463852,55.3158234 239.310043,56.3456413 239.940195,57.4739805 C240.570347,58.6023196 240.93943,59.7216869 241.047456,60.8321159 L244.720323,60.8321159 C244.360236,58.7187188 243.694085,56.8740015 242.721851,55.2979086 C241.749617,53.7218158 240.561349,52.396485 239.157011,51.3218762 C237.752672,50.2472675 236.15031,49.441323 234.349877,48.9040187 C232.549443,48.3667143 230.641012,48.0980661 228.624527,48.0980661 C225.599798,48.0980661 222.944199,48.6443174 220.657648,49.7368363 C218.371097,50.8293551 216.471668,52.2979651 214.959304,54.14271 C213.44694,55.987455 212.312684,58.1097754 211.556502,60.5097349 C210.800319,62.9096944 210.422234,65.4349871 210.422234,68.0856886 C210.422234,70.7363902 210.800319,73.2616828 211.556502,75.6616423 C212.312684,78.0616018 213.44694,80.1749673 214.959304,82.0018021 C216.471668,83.8286369 218.371097,85.2882919 220.657648,86.3808108 C222.944199,87.4733297 225.599798,88.0195809 228.624527,88.0195809 C230.028865,88.0195809 231.388172,87.8763019 232.702488,87.5897396 C234.016805,87.3031772 235.250083,86.8464754 236.402361,86.2196203 C237.554638,85.5927652 238.607876,84.7868207 239.562106,83.8017627 C240.516336,82.8167047 241.317517,81.6436078 241.965673,80.2824367 L242.073698,80.2824367 L242.559813,87.2673586 L245.206437,87.2673586 L245.206437,87.2673586 Z" id="SKIING-2" fill="#FDBD14"></path>
                </g>
            </g>
        </g>
    </g>
</svg>