<?xml version="1.0" encoding="UTF-8" standalone="no"?>
<svg width="236px" height="255px" viewBox="0 0 236 255" version="1.1" xmlns="http://www.w3.org/2000/svg" xmlns:xlink="http://www.w3.org/1999/xlink" xmlns:sketch="http://www.bohemiancoding.com/sketch/ns">
    <!-- Generator: Sketch 3.3.2 (12043) - http://www.bohemiancoding.com/sketch -->
    <title>Imported Layers Copy 4 + Interschools Copy 21 Copy Copy Copy Copy</title>
    <desc>Created with Sketch.</desc>
    <defs></defs>
    <g id="25-Faces" stroke="none" stroke-width="1" fill="none" fill-rule="evenodd" sketch:type="MSPage">
        <g id="Imported-Layers-Copy-4-+-Interschools-Copy-21-Copy-Copy-Copy-Copy-+-discoverxcski-copy-6" sketch:type="MSLayerGroup" transform="translate(0.422796, 0.038000)">
            <g id="Imported-Layers-Copy-4-+-Interschools-Copy-21-Copy-Copy-Copy-Copy" sketch:type="MSShapeGroup">
                <g id="Imported-Layers-Copy-4" fill="#FBBE00">
                    <path d="M0.0519173513,127.419407 C0.0519173513,112.740885 -0.053917308,98.0609611 0.0946473876,83.3838421 C0.173881892,75.5562322 3.13102678,68.531972 7.28263183,61.9887679 C11.2137952,55.7928218 16.3218739,50.8633294 22.7958988,47.1859853 C47.1562642,33.3489613 71.4484313,19.3932861 95.7355047,5.43059846 C102.989424,1.26013682 110.83845,-0.189482891 119.086196,0.0194889901 C126.662996,0.211350422 133.69902,2.15997815 140.311139,5.98121833 C164.402956,19.9043556 188.569197,33.7021097 212.725533,47.5158523 C223.210239,53.5112415 229.48731,62.6981503 233.214161,73.8306014 C234.485592,77.6277186 234.938078,81.560317 234.935248,85.5644426 C234.915439,113.426145 234.739991,141.28981 234.998635,169.149549 C235.139277,184.302675 224.386589,201.045951 212.756095,207.540909 C187.844484,221.451424 163.218683,235.863751 138.437526,250.004556 C131.010706,254.242618 122.850684,255.360127 114.415888,254.905718 C107.080471,254.510775 100.378364,252.273233 94.0064947,248.587194 C70.083334,234.747365 46.0667898,221.065737 22.0757138,207.341474 C11.9153035,201.52897 5.77151664,192.610219 1.97080726,181.884772 C0.53694571,177.838852 -0.00977236988,173.643706 0.000131943158,169.35263 C0.0318257449,155.375076 0.0120171188,141.397241 0.0120171188,127.419407 C0.0253171963,127.419407 52.2222222,52.0408163 52.2222222,52.0408163" id="Fill-2"></path>
                </g>
                <g id="Interschools-Copy-21" transform="translate(36.990741, 52.944915)" fill="#FFFFFF">
                    <path d="M144.926897,126.915254 C144.910461,130.67713 141.732209,133.71213 137.912928,133.694545 L23.9351852,133.694545 L23.9351852,138.304931 L137.897986,138.304931 C144.320235,138.337171 149.56054,133.297401 149.594907,126.96508 L144.926897,126.915254 L144.926897,126.915254 Z" id="Shape"></path>
                    <path d="M110.981166,23.3220339 C117.286212,23.3220339 122.395833,18.3343123 122.395833,12.196136 C122.395833,6.05795973 117.286212,1.08474576 110.981166,1.08474576 C104.674629,1.08474576 99.5486111,6.05650897 99.5486111,12.1946853 C99.5486111,18.3328615 104.673138,23.3220339 110.981166,23.3220339 L110.981166,23.3220339 Z" id="Shape"></path>
                    <path d="M38.3038284,119.524667 L0,81.8983051 L0.0165245161,88.4714434 L35.6689192,123.520335 C39.7639947,127.863196 46.7824074,122.837717 46.7824074,122.837717 L43.417415,119.309878 C43.417415,119.309878 40.1034984,121.440116 38.386451,119.626177 L38.3038284,119.524667 L38.3038284,119.524667 Z" id="Shape"></path>
                    <rect id="Rectangle-path" x="0.543981481" y="48.8135593" width="38.6226852" height="4.33898305"></rect>
                    <path d="M144.623431,38.5084746 L149.050926,40.3345559 L104.973846,127.457627 L100.092593,127.457627 L144.623431,38.5084746 Z" id="Shape"></path>
                    <path d="M71.3122669,31.9649933 L53.4825157,52.0836367 C52.4342346,53.3564876 50.8266709,54.1427032 49.0336765,54.1427032 C45.8364939,54.1427032 43.2658874,51.6218446 43.2658874,48.5135164 C43.2658874,46.8270985 44.0106006,45.3233516 45.2114133,44.2901649 L64.4289033,22.6590064 C65.4936339,21.419767 67.0847481,20.6174763 68.8777425,20.6174763 L96.7042971,20.6101695 C98.7515108,20.6101695 100.577404,21.4124601 101.932244,22.6838497 L119.676757,40.017127 L134.376619,25.6767299 C135.40845,24.8262141 136.745345,24.3132742 138.200377,24.3132742 C141.499248,24.3132742 144.155093,26.9261989 144.155093,30.1324387 C144.155093,31.538274 143.664599,32.8111249 142.818198,33.818007 L125.090134,51.2725778 C119.709656,56.5218091 115.380449,52.0661002 115.380449,52.0661002 L104.504346,41.3864281 L87.5015554,60.5975624 L103.082213,75.8220868 C103.082213,75.8220868 106.363138,78.7988919 104.484906,84.7335045 L95.7562083,122.75682 C95.0623389,126.062433 92.0685318,128.542373 88.4989926,128.542373 C84.4045652,128.542373 81.0892453,125.30106 81.0892453,121.301298 C81.0892453,120.67291 81.1565387,120.060597 81.3255198,119.483357 L88.4974972,88.2802429 L70.8053236,71.4657509 L55.5805733,88.0551923 C55.5805733,88.0551923 53.1116545,91.0319975 46.5812072,90.7996401 L15.7085062,90.8493266 C12.2571043,90.9150881 9.12721504,88.6017437 8.34960281,85.1879897 C7.43590844,81.2861391 9.90632268,77.4675864 13.897567,76.5995342 C14.524143,76.4577816 15.1492236,76.4095564 15.7593501,76.4256315 L42.3177986,76.5001612 L81.5812346,32.0146798 L71.3122669,31.9649933 L71.3122669,31.9649933 Z" id="Shape"></path>
                </g>
            </g>
        </g>
    </g>
</svg>