<?xml version="1.0" encoding="UTF-8" standalone="no"?>
<svg width="224px" height="266px" viewBox="0 0 224 266" version="1.1" xmlns="http://www.w3.org/2000/svg" xmlns:xlink="http://www.w3.org/1999/xlink" xmlns:sketch="http://www.bohemiancoding.com/sketch/ns">
    <!-- Generator: Sketch 3.3.2 (12043) - http://www.bohemiancoding.com/sketch -->
    <title>Imported Layers + Interschools Copy 23 + Imported Layers Copy + Racing 2 Copy 21 Copy Copy Copy + Imported Layers Copy 3 + Racing 2 Copy 22 Copy Copy Copy</title>
    <desc>Created with Sketch.</desc>
    <defs></defs>
    <g id="25-Faces" stroke="none" stroke-width="1" fill="none" fill-rule="evenodd" sketch:type="MSPage">
        <g id="Artboard-9-Copy-4" sketch:type="MSArtboardGroup" transform="translate(0.000000, -200.000000)">
            <g id="Imported-Layers-+-Interschools-Copy-23-+-Imported-Layers-Copy-+-Racing-2-Copy-21-Copy-Copy-Copy-+-Imported-Layers-Copy-3-+-Racing-2-Copy-22-Copy-Copy-Copy" sketch:type="MSLayerGroup" transform="translate(-54.000000, 200.000000)">
                <g id="Imported-Layers-+-Interschools-Copy-23" transform="translate(0.000000, 122.000000)" sketch:type="MSShapeGroup">
                    <g id="Imported-Layers" fill="#FBFCFC">
                        <path d="M0.0293830116,71.9544884 C0.0293830116,63.665441 -0.030514902,55.3756016 0.0535663938,47.0873461 C0.0984097516,42.6670488 1.77202792,38.7004077 4.12165972,35.0054219 C6.34653088,31.5065347 9.23748606,28.7228213 12.9015087,26.6462035 C26.6884389,18.8323546 40.4367718,10.9515027 54.1822218,3.0666909 C58.2876312,0.711606672 62.7298463,-0.107002103 67.3977195,0.0110055474 C71.6858656,0.119350826 75.6679558,1.21975237 79.410134,3.37762918 C93.0450772,11.2401067 106.722141,19.0317796 120.3936,26.8324813 C126.327497,30.2181129 129.880052,35.4060143 131.989291,41.6925749 C132.708867,43.8368293 132.964955,46.0575908 132.963353,48.3187441 C132.952142,64.052411 132.852846,79.7871868 132.999228,95.519745 C133.078825,104.076804 126.993261,113.531831 120.410896,117.199572 C106.311985,125.054922 92.3748292,133.193648 78.3497487,141.179043 C74.1464847,143.572302 69.5282595,144.203366 64.7545239,143.946758 C60.6029899,143.723732 56.8098824,142.460179 53.2036757,140.378651 C39.6641848,132.563218 26.0718427,124.837122 12.4939146,117.08695 C6.74355475,113.804595 3.26643282,108.768123 1.11539304,102.711401 C0.303888423,100.426646 -0.00553074551,98.0576223 7.46742127e-05,95.6344263 C0.0180120173,87.7412193 0.00680117788,79.8478539 0.00680117788,71.9544884 L0.0293830116,71.9544884" id="Fill-2"></path>
                    </g>
                    <g id="Interschools-Copy-20" transform="translate(20.935185, 29.898305)" fill="#F7F9F9">
                        <path d="M82.0224568,71.6697906 C82.0131544,73.7941441 80.2143993,75.5080265 78.0528488,75.4980957 L13.5462963,75.4980957 L13.5462963,78.101608 L78.0443921,78.101608 C81.6791119,78.1198144 84.6449013,75.2738263 84.6643519,71.6979278 L82.0224568,71.6697906 L82.0224568,71.6697906 Z" id="Shape"></path>
                        <path d="M62.8106171,13.1700897 C66.379005,13.1700897 69.2708333,10.353494 69.2708333,6.88722975 C69.2708333,3.4209655 66.379005,0.612562313 62.8106171,0.612562313 C59.2413856,0.612562313 56.3402778,3.42014624 56.3402778,6.8864105 C56.3402778,10.3526748 59.240542,13.1700897 62.8106171,13.1700897 L62.8106171,13.1700897 Z" id="Shape"></path>
                        <path d="M81.8507078,21.7459621 L84.3564815,22.777161 L59.4107299,71.9760718 L56.6481481,71.9760718 L81.8507078,21.7459621 Z" id="Shape"></path>
                        <path d="M40.3597085,18.0508197 L30.2688281,29.411936 C29.6755456,30.1307224 28.7657329,30.574703 27.7509744,30.574703 C25.9415051,30.574703 24.4866511,29.1511593 24.4866511,27.3958681 C24.4866511,26.443538 24.9081272,25.5943633 25.5877361,25.0109167 L36.4640176,12.7956742 C37.0666098,12.0958684 37.9671128,11.6428102 38.9818713,11.6428102 L54.7305171,11.6386839 C55.8891529,11.6386839 56.9225308,12.0917422 57.6893125,12.8097033 L67.7319517,22.597907 L76.0514481,14.4998004 C76.6354209,14.0195091 77.3920465,13.729849 78.2155327,13.729849 C80.082553,13.729849 81.5856481,15.2053829 81.5856481,17.0159654 C81.5856481,17.8098489 81.3080495,18.5286353 80.8290225,19.0972275 L70.795693,28.9539263 C67.7505712,31.9181981 65.3004245,29.4020331 65.3004245,29.4020331 L59.1450128,23.3711594 L49.5221569,34.2198 L58.3401459,42.8171784 C58.3401459,42.8171784 60.1970101,44.4981978 59.1340104,47.8495084 L54.1939392,69.3214982 C53.8012386,71.1881972 52.1068712,72.5886341 50.0866639,72.5886341 C47.7693922,72.5886341 45.8930622,70.7582458 45.8930622,68.4995565 C45.8930622,68.1447022 45.9311474,67.7989255 46.0267835,67.4729546 L50.0858176,49.8523724 L40.0728001,40.3571299 L31.4562394,49.7252851 C31.4562394,49.7252851 30.0589364,51.4063045 26.3629811,51.2750909 L8.89034609,51.3031491 C6.93699944,51.340285 5.16561532,50.0339258 4.72551989,48.1061589 C4.20840776,45.9027609 5.60655709,43.7464017 7.86543153,43.2562075 C8.22004689,43.176159 8.57381591,43.148926 8.91912156,43.1580037 L23.9500732,43.200091 L46.1715072,18.078878 L40.3597085,18.0508197 L40.3597085,18.0508197 Z" id="Shape"></path>
                    </g>
                </g>
                <g id="Imported-Layers-Copy-+-Racing-2-Copy-21-Copy-Copy-Copy" transform="translate(72.000000, 0.000000)" sketch:type="MSShapeGroup">
                    <g id="Imported-Layers-Copy" transform="translate(0.306452, 0.000000)" fill="#FFFFFF">
                        <path d="M0.029247606,71.9544884 C0.029247606,63.665441 -0.0303742803,55.3756016 0.0533195441,47.0873461 C0.0979562504,42.6670488 1.7638619,38.7004077 4.10266589,35.0054219 C6.31728419,31.5065347 9.194917,28.7228213 12.8420547,26.6462035 C26.5654507,18.8323546 40.2504272,10.9515027 53.9325342,3.0666909 C58.0190246,0.711606672 62.4407687,-0.107002103 67.0871309,0.0110055474 C71.355516,0.119350826 75.3192555,1.21975237 79.0441887,3.37762918 C92.616298,11.2401067 106.230334,19.0317796 119.83879,26.8324813 C125.745343,30.2181129 129.281526,35.4060143 131.381046,41.6925749 C132.097305,43.8368293 132.352213,46.0575908 132.350619,48.3187441 C132.33946,64.052411 132.240621,79.7871868 132.386328,95.519745 C132.465558,104.076804 126.408038,113.531831 119.856008,117.199572 C105.822068,125.054922 91.9491387,133.193648 77.98869,141.179043 C73.8047958,143.572302 69.2078527,144.203366 64.4561159,143.946758 C60.3237134,143.723732 56.5480857,142.460179 52.9584975,140.378651 C39.4814005,132.563218 25.951696,124.837122 12.436339,117.08695 C6.71247846,113.804595 3.25138014,108.768123 1.11025298,102.711401 C0.302488015,100.426646 -0.0055052582,98.0576223 7.43300919e-05,95.6344263 C0.0179290126,87.7412193 0.00676983604,79.8478539 0.00676983604,71.9544884 L0.029247606,71.9544884" id="Fill-2"></path>
                    </g>
                    <g id="Racing-2-Copy-43" transform="translate(25.435484, 32.338983)" fill="#F7F9F9">
                        <g id="Your_Icon">
                            <path d="M55.719527,15.9214879 C59.3860249,15.638164 62.137089,12.4427962 61.8455981,8.79242144 C61.5541073,5.13454146 58.3315138,2.41106734 54.6650159,2.6943912 C50.9908974,2.97865323 48.2512643,6.16276317 48.5427551,9.82064315 C48.834246,13.4710179 52.0463611,16.2057499 55.719527,15.9214879 L55.719527,15.9214879 Z" id="Shape"></path>
                            <path d="M44.7952876,37.6520531 L53.3723587,49.9719505 L47.5739767,69.0381457 C46.8604909,70.7728007 47.4682398,72.8029757 49.0857283,73.8978067 C50.9508888,75.1380522 53.4752379,74.6539624 54.7145503,72.8179863 C54.8783949,72.5637453 55.0127093,72.2935557 55.1232091,72.0243042 C55.1232091,72.0243042 60.8796774,53.0265946 61.224513,51.945836 C61.7722491,50.2280678 61.765581,49.51882 61.618883,48.0506019 C61.472185,46.5823839 55.1327349,26.2234063 55.1327349,26.2234063 L61.8884644,18.2659459 L65.9693366,21.7005442 L65.9750521,21.7493284 C66.1779526,23.2597636 67.5858725,24.3226972 69.1195336,24.1228694 C70.6531947,23.9230417 71.732473,22.5364434 71.5295725,21.0269464 C71.5295725,21.0269464 70.712255,12.3987027 70.2540618,10.9511241 C69.4777054,8.5015923 67.0971967,8.67515163 67.0971967,8.67515163 L64.0060599,8.27080531 C64.0203486,8.38807513 64.0327322,8.50534494 64.0422581,8.62355291 C64.2727835,11.5158956 63.0582382,14.1952762 61.0025608,15.963705 L61.0025608,15.963705 C60.8634835,16.0837893 60.7196432,16.1973065 60.5729452,16.3089473 C60.5434151,16.3314631 60.513885,16.3539789 60.4843548,16.3755566 C60.3347991,16.4862593 60.1823855,16.5941475 60.0252091,16.6954686 C58.8249526,17.4694494 57.4198904,17.9647971 55.8948026,18.083005 C55.6633245,18.1008301 55.4289887,18.1102116 55.1984633,18.1102116 C52.9665577,18.1102116 50.8308632,17.2799414 49.1838445,15.7732588 C47.5339681,14.2637618 46.5280389,12.2101328 46.3508581,9.991388 C46.2498842,8.72205955 46.4289701,7.49494824 46.8328659,6.36634356 L32.9870497,4.56789372 C32.9870497,4.56789372 30.7341873,3.78922217 29.3367458,5.95543014 C28.5118076,7.23507833 25.4416277,15.3567164 25.4416277,15.3567164 C25.1453739,16.0575208 25.1644256,16.809924 25.4349596,17.461006 L6.36040692,20.2295117 L6.22037699,19.1149794 C6.17941586,18.7913147 5.88030431,18.5614659 5.55071007,18.6008685 C5.2220684,18.6412093 4.98773261,18.9357911 5.02869374,19.260394 L5.17253401,20.4021328 L3.77223475,20.6057132 C3.44454567,20.6535593 3.21783055,20.95377 3.26545977,21.2764966 C3.30927866,21.5701402 3.5655239,21.7812258 3.85891994,21.7812258 C3.88845006,21.7812258 3.91798018,21.7793495 3.9475103,21.7746587 L5.31923202,21.5757691 L5.47069297,22.7813028 C5.50879635,23.0805754 5.76694675,23.3001044 6.0660583,23.3001044 C6.0908255,23.3001044 6.11559269,23.2991663 6.14035989,23.2954137 C6.46900155,23.2550728 6.70333735,22.9604911 6.66237621,22.6358882 L6.50710494,21.403148 L26.2370358,18.5398882 C26.4466044,18.7115712 26.6857031,18.8560476 26.9505216,18.964874 C28.2107909,19.4817994 29.6358574,19.0230399 30.3617268,17.9413431 L33.3461741,17.5079139 C33.6738632,17.4600678 33.9005783,17.1598571 33.8529491,16.8371306 C33.8043673,16.514404 33.4985876,16.2901842 33.1718511,16.3380302 L30.9418508,16.6616949 L33.3557,10.636841 L41.0878286,13.8941273 L35.0817831,31.5043005 L35.1094081,31.5211874 L19.1555223,52.9430985 L5.35066731,66.5238809 C5.23921492,66.5848612 5.13157287,66.6542849 5.03536183,66.7368429 C3.42549398,68.1271938 3.19401593,70.5335703 4.54287563,72.200678 C5.91078702,73.8903014 8.39417489,74.189574 10.1335942,72.8921008 C10.186939,72.8526981 10.2421889,72.8142336 10.299344,72.7795218 L28.5584843,55.7256766 L44.7952876,37.6520531 L44.7952876,37.6520531 Z M65.1358251,14.4401356 L65.771199,19.9780852 L62.6581527,17.3578085 L65.1358251,14.4401356 L65.1358251,14.4401356 Z" id="Shape"></path>
                            <path d="M42.5157528,1.96075126 L41.6860517,2.86607421 C41.4640995,3.1081191 41.4831512,3.48244434 41.7298706,3.70103527 C41.8441807,3.80329455 41.988021,3.85301695 42.1318613,3.85301695 C42.2957058,3.85301695 42.4595503,3.78734585 42.5776708,3.65787998 L43.4292814,2.72910307 L47.0614862,5.78656161 C47.2262833,5.41411269 47.4168002,5.05385983 47.6301792,4.70955566 L44.2342153,1.85192487 L44.99152,1.02540724 C45.2134722,0.783362345 45.1944205,0.409037105 44.9477011,0.190446175 C44.7019343,-0.0290829134 44.3218531,-0.00938158498 44.0999009,0.233601466 L43.3206867,1.08357306 L42.2433136,0.176373798 C41.9908787,-0.0356500229 41.6117501,-0.00656710948 41.3974186,0.242044892 C41.1821345,0.490656894 41.2116646,0.863105818 41.4640995,1.07512964 L42.5157528,1.96075126 L42.5157528,1.96075126 Z" id="Shape"></path>
                            <path d="M78.927344,73.4109024 L76.2067625,73.4109024 L76.2067625,74.4513202 C76.2067625,75.8088355 75.0874757,76.2253779 75.0874757,76.2253779 L21.9094442,76.2253779 L21.9094442,78.1016949 L76.0381551,78.1016949 C79.5131834,78.1016949 78.927344,73.4109024 78.927344,73.4109024 L78.927344,73.4109024 Z" id="Shape"></path>
                            <path d="M2.87416666,76.5373055 L0.166589124,73.7023973 L2.02842981,71.9358218 L4.73600734,74.7707301 L2.87416666,76.5373055 L2.87416666,76.5373055 Z" id="Rectangle-path"></path>
                        </g>
                    </g>
                </g>
                <g id="Imported-Layers-Copy-3-+-Racing-2-Copy-22-Copy-Copy-Copy" transform="translate(145.000000, 122.000000)" sketch:type="MSShapeGroup">
                    <g id="Imported-Layers-Copy-3" transform="translate(0.305506, 0.000000)" fill="#FBFCFC">
                        <path d="M0.0291573285,71.9544884 C0.0291573285,63.665441 -0.0302805251,55.3756016 0.0531549646,47.0873461 C0.0976538924,42.6670488 1.75841745,38.7004077 4.09000234,35.0054219 C6.29778486,31.5065347 9.16653538,28.7228213 12.8024156,26.6462035 C26.4834521,18.8323546 40.1261876,10.9515027 53.7660626,3.0666909 C57.8399394,0.711606672 62.248035,-0.107002103 66.8800555,0.0110055474 C71.1352655,0.119350826 75.0867703,1.21975237 78.8002058,3.37762918 C92.3304227,11.2401067 105.902437,19.0317796 119.468888,26.8324813 C125.357209,30.2181129 128.882478,35.4060143 130.975517,41.6925749 C131.689565,43.8368293 131.943686,46.0575908 131.942097,48.3187441 C131.930972,64.052411 131.832439,79.7871868 131.977696,95.519745 C132.056682,104.076804 126.017859,113.531831 119.486052,117.199572 C105.49543,125.054922 91.6653226,133.193648 77.7479651,141.179043 C73.5769852,143.572302 68.9942314,144.203366 64.2571616,143.946758 C60.1375144,143.723732 56.3735408,142.460179 52.7950324,140.378651 C39.3595347,132.563218 25.8715918,124.837122 12.3979522,117.08695 C6.6917593,113.804595 3.24134422,108.768123 1.10682601,102.711401 C0.301554337,100.426646 -0.00548826532,98.0576223 7.41006599e-05,95.6344263 C0.0178736718,87.7412193 0.00674893983,79.8478539 0.00674893983,71.9544884 L0.0291573285,71.9544884" id="Fill-2"></path>
                    </g>
                    <g id="Racing-2-Copy-42" transform="translate(25.356973, 32.338983)" fill="#F6F6F6">
                        <g id="Your_Icon">
                            <path d="M55.5475396,15.9214879 C59.2027202,15.638164 61.9452927,12.4427962 61.6547016,8.79242144 C61.3641104,5.13454146 58.151464,2.41106734 54.4962834,2.6943912 C50.8335056,2.97865323 48.1023288,6.16276317 48.39292,9.82064315 C48.6835111,13.4710179 51.8857114,16.2057499 55.5475396,15.9214879 L55.5475396,15.9214879 Z" id="Shape"></path>
                            <path d="M44.6570196,37.6520531 L53.2076162,49.9719505 L47.4271318,69.0381457 C46.7158483,70.7728007 47.3217213,72.8029757 48.9342172,73.8978067 C50.7936206,75.1380522 53.3101778,74.6539624 54.5456649,72.8179863 C54.7090037,72.5637453 54.8429035,72.2935557 54.9530623,72.0243042 C54.9530623,72.0243042 60.6917623,53.0265946 61.0355335,51.945836 C61.5815789,50.2280678 61.5749314,49.51882 61.4286862,48.0506019 C61.282441,46.5823839 54.9625587,26.2234063 54.9625587,26.2234063 L61.6974355,18.2659459 L65.7657114,21.7005442 L65.7714093,21.7493284 C65.9736835,23.2597636 67.3772576,24.3226972 68.9061848,24.1228694 C70.435112,23.9230417 71.5110589,22.5364434 71.3087847,21.0269464 C71.3087847,21.0269464 70.49399,12.3987027 70.0372111,10.9511241 C69.2632511,8.5015923 66.8900902,8.67515163 66.8900902,8.67515163 L63.8084946,8.27080531 C63.8227393,8.38807513 63.8350847,8.50534494 63.8445811,8.62355291 C64.074395,11.5158956 62.8635986,14.1952762 60.8142664,15.963705 L60.8142664,15.963705 C60.6756184,16.0837893 60.5322221,16.1973065 60.3859769,16.3089473 C60.3565379,16.3314631 60.3270989,16.3539789 60.29766,16.3755566 C60.1485658,16.4862593 59.9966227,16.5941475 59.8399314,16.6954686 C58.6433797,17.4694494 57.2426545,17.9647971 55.7222741,18.083005 C55.4915105,18.1008301 55.2578981,18.1102116 55.0280842,18.1102116 C52.8030677,18.1102116 50.6739654,17.2799414 49.0320305,15.7732588 C47.3872467,14.2637618 46.3844224,12.2101328 46.2077886,9.991388 C46.1071263,8.72205955 46.2856594,7.49494824 46.6883086,6.36634356 L32.8852298,4.56789372 C32.8852298,4.56789372 30.6393212,3.78922217 29.2461931,5.95543014 C28.4238012,7.23507833 25.3630979,15.3567164 25.3630979,15.3567164 C25.0677586,16.0575208 25.0867514,16.809924 25.3564504,17.461006 L6.34077448,20.2295117 L6.20117678,19.1149794 C6.16034208,18.7913147 5.86215379,18.5614659 5.53357689,18.6008685 C5.20594963,18.6412093 4.97233715,18.9357911 5.01317185,19.260394 L5.15656813,20.4021328 L3.76059112,20.6057132 C3.43391351,20.6535593 3.20789819,20.95377 3.2553804,21.2764966 C3.29906403,21.5701402 3.55451833,21.7812258 3.84700875,21.7812258 C3.87644772,21.7812258 3.90588669,21.7793495 3.93532566,21.7746587 L5.30281334,21.5757691 L5.45380677,22.7813028 C5.49179254,23.0805754 5.74914613,23.3001044 6.04733441,23.3001044 C6.07202516,23.3001044 6.09671591,23.2991663 6.12140666,23.2954137 C6.44903392,23.2550728 6.6826464,22.9604911 6.6418117,22.6358882 L6.48701969,21.403148 L26.1560508,18.5398882 C26.3649726,18.7115712 26.6033333,18.8560476 26.8673344,18.964874 C28.1237137,19.4817994 29.5443814,19.0230399 30.2680103,17.9413431 L33.2432457,17.5079139 C33.5699233,17.4600678 33.7959386,17.1598571 33.7484564,16.8371306 C33.7000246,16.514404 33.3951888,16.2901842 33.0694608,16.3380302 L30.8463437,16.6616949 L33.2527421,10.636841 L40.9610043,13.8941273 L34.9734975,31.5043005 L35.0010371,31.5211874 L19.0963957,52.9430985 L5.3341516,66.5238809 C5.22304323,66.5848612 5.11573343,66.6542849 5.01981936,66.7368429 C3.41492063,68.1271938 3.18415708,70.5335703 4.5288533,72.200678 C5.89254241,73.8903014 8.3682649,74.189574 10.1023152,72.8921008 C10.1554953,72.8526981 10.2105747,72.8142336 10.2675533,72.7795218 L28.4703338,55.7256766 L44.6570196,37.6520531 L44.6570196,37.6520531 Z M64.9347727,14.4401356 L65.5681854,19.9780852 L62.4647481,17.3578085 L64.9347727,14.4401356 L64.9347727,14.4401356 Z" id="Shape"></path>
                            <path d="M42.384521,1.96075126 L41.5573809,2.86607421 C41.3361138,3.1081191 41.3551066,3.48244434 41.6010645,3.70103527 C41.7150218,3.80329455 41.8584181,3.85301695 42.0018144,3.85301695 C42.1651532,3.85301695 42.328492,3.78734585 42.4462478,3.65787998 L43.2952298,2.72910307 L46.9162232,5.78656161 C47.0805117,5.41411269 47.2704405,5.05385983 47.4831608,4.70955566 L44.0976792,1.85192487 L44.8526463,1.02540724 C45.0739134,0.783362345 45.0549205,0.409037105 44.8089627,0.190446175 C44.5639545,-0.0290829134 44.1850464,-0.00938158498 43.9637793,0.233601466 L43.1869703,1.08357306 L42.1129227,0.176373798 C41.861267,-0.0356500229 41.4833086,-0.00656710948 41.2696387,0.242044892 C41.0550191,0.490656894 41.084458,0.863105818 41.3361138,1.07512964 L42.384521,1.96075126 L42.384521,1.96075126 Z" id="Shape"></path>
                            <path d="M78.6837218,73.4109024 L75.9715379,73.4109024 L75.9715379,74.4513202 C75.9715379,75.8088355 74.8557059,76.2253779 74.8557059,76.2253779 L21.8418171,76.2253779 L21.8418171,78.1016949 L75.8034508,78.1016949 C79.267753,78.1016949 78.6837218,73.4109024 78.6837218,73.4109024 L78.6837218,73.4109024 Z" id="Shape"></path>
                            <path d="M2.86529507,76.5373055 L0.166074919,73.7023973 L2.02216873,71.9358218 L4.72138888,74.7707301 L2.86529507,76.5373055 L2.86529507,76.5373055 Z" id="Rectangle-path"></path>
                        </g>
                    </g>
                </g>
            </g>
        </g>
    </g>
</svg>